<svg width="300" height="80" viewBox="0 0 300 80" fill="none" xmlns="http://www.w3.org/2000/svg">
<rect width="300" height="80" fill="#E5A650" fill-opacity="0.5"/>
<path d="M48.125 28.5L36.875 39.75L48.125 51" stroke="white" stroke-width="3" stroke-linecap="round" stroke-linejoin="round"/>
<path d="M38.125 28.5L26.875 39.75L38.125 51" stroke="white" stroke-width="3" stroke-linecap="round" stroke-linejoin="round"/>
<path d="M90.31 35.67C90.31 37.83 89.56 39.51 88.06 40.71C86.58 41.89 84.62 42.48 82.18 42.48H77.68C77.46 42.48 77.35 42.59 77.35 42.81V50.31C77.35 50.77 77.09 51 76.57 51H72.73C72.49 51 72.32 50.95 72.22 50.85C72.14 50.75 72.1 50.6 72.1 50.4V29.31C72.1 28.93 72.26 28.74 72.58 28.74H81.58C83.24 28.74 84.72 29 86.02 29.52C87.34 30.02 88.38 30.79 89.14 31.83C89.92 32.87 90.31 34.15 90.31 35.67ZM84.91 35.58C84.91 34.56 84.58 33.79 83.92 33.27C83.26 32.75 82.37 32.49 81.25 32.49H77.92C77.72 32.49 77.57 32.53 77.47 32.61C77.39 32.69 77.35 32.83 77.35 33.03V38.16C77.35 38.36 77.38 38.51 77.44 38.61C77.5 38.69 77.61 38.73 77.77 38.73H81.46C82.52 38.73 83.36 38.45 83.98 37.89C84.6 37.33 84.91 36.56 84.91 35.58ZM111.605 50.19C111.645 50.31 111.665 50.4 111.665 50.46C111.665 50.62 111.615 50.75 111.515 50.85C111.415 50.95 111.295 51 111.155 51H106.745C106.405 51 106.185 50.82 106.085 50.46L102.845 42.06C102.785 41.9 102.695 41.79 102.575 41.73C102.455 41.67 102.265 41.64 102.005 41.64H99.1553C99.0353 41.64 98.9453 41.68 98.8853 41.76C98.8253 41.82 98.7953 41.89 98.7953 41.97V50.28C98.7953 50.54 98.7253 50.73 98.5853 50.85C98.4653 50.95 98.2653 51 97.9853 51H94.1753C93.9353 51 93.7653 50.95 93.6653 50.85C93.5853 50.75 93.5453 50.6 93.5453 50.4V29.31C93.5453 28.93 93.7053 28.74 94.0253 28.74H103.385C106.085 28.74 108.175 29.27 109.655 30.33C111.135 31.39 111.875 32.9 111.875 34.86C111.875 36.32 111.485 37.57 110.705 38.61C109.925 39.63 108.945 40.35 107.765 40.77C107.605 40.83 107.565 40.98 107.645 41.22L111.605 50.19ZM102.905 38.1C104.065 38.1 104.945 37.86 105.545 37.38C106.145 36.88 106.445 36.16 106.445 35.22C106.445 34.26 106.135 33.53 105.515 33.03C104.915 32.51 104.095 32.25 103.055 32.25H99.3653C99.1453 32.25 98.9953 32.29 98.9153 32.37C98.8353 32.43 98.7953 32.55 98.7953 32.73V37.59C98.7953 37.77 98.8253 37.9 98.8853 37.98C98.9453 38.06 99.0553 38.1 99.2153 38.1H102.905ZM115.196 29.31C115.196 28.93 115.356 28.74 115.676 28.74H130.796C131.096 28.74 131.246 28.91 131.246 29.25L131.216 31.95C131.216 32.37 131.006 32.58 130.586 32.58H121.016C120.636 32.58 120.446 32.74 120.446 33.06V37.41C120.446 37.75 120.596 37.92 120.896 37.92H127.256C127.596 37.92 127.766 38.08 127.766 38.4V41.28C127.766 41.56 127.606 41.7 127.286 41.7H120.866C120.586 41.7 120.446 41.82 120.446 42.06V46.77C120.446 46.91 120.466 47.01 120.506 47.07C120.566 47.13 120.656 47.16 120.776 47.16H131.036C131.396 47.16 131.576 47.31 131.576 47.61V50.46C131.576 50.82 131.376 51 130.976 51H115.856C115.616 51 115.446 50.95 115.346 50.85C115.246 50.75 115.196 50.59 115.196 50.37V29.31ZM153.275 28.74C153.475 28.74 153.615 28.81 153.695 28.95C153.795 29.09 153.805 29.25 153.725 29.43L146.525 50.37C146.385 50.79 146.075 51 145.595 51H141.845C141.365 51 141.045 50.79 140.885 50.37L133.745 29.46L133.685 29.22C133.685 29.08 133.735 28.97 133.835 28.89C133.935 28.79 134.065 28.74 134.225 28.74H138.545C138.865 28.74 139.075 28.91 139.175 29.25L144.095 44.43C144.115 44.57 144.165 44.64 144.245 44.64C144.325 44.64 144.395 44.56 144.455 44.4L149.225 29.25C149.325 28.91 149.545 28.74 149.885 28.74H153.275ZM161.597 28.74C161.917 28.74 162.077 28.92 162.077 29.28V50.28C162.077 50.54 162.017 50.73 161.897 50.85C161.777 50.95 161.567 51 161.267 51H157.487C157.247 51 157.077 50.95 156.977 50.85C156.877 50.75 156.827 50.59 156.827 50.37V29.31C156.827 28.93 156.987 28.74 157.307 28.74H161.597ZM175.829 51.3C173.729 51.3 171.899 50.85 170.339 49.95C168.799 49.03 167.609 47.72 166.769 46.02C165.949 44.32 165.539 42.3 165.539 39.96C165.539 37.6 165.959 35.56 166.799 33.84C167.639 32.1 168.829 30.77 170.369 29.85C171.929 28.91 173.749 28.44 175.829 28.44C177.889 28.44 179.689 28.91 181.229 29.85C182.769 30.77 183.959 32.1 184.799 33.84C185.639 35.56 186.059 37.59 186.059 39.93C186.059 42.25 185.639 44.27 184.799 45.99C183.979 47.69 182.799 49 181.259 49.92C179.719 50.84 177.909 51.3 175.829 51.3ZM175.829 47.61C177.489 47.61 178.689 47.01 179.429 45.81C180.189 44.61 180.569 42.67 180.569 39.99C180.569 37.25 180.179 35.25 179.399 33.99C178.639 32.73 177.449 32.1 175.829 32.1C174.169 32.1 172.949 32.73 172.169 33.99C171.409 35.25 171.029 37.25 171.029 39.99C171.029 42.67 171.409 44.61 172.169 45.81C172.929 47.01 174.149 47.61 175.829 47.61ZM207.192 42.75C207.192 45.79 206.422 47.98 204.882 49.32C203.342 50.64 201.122 51.3 198.222 51.3C195.042 51.3 192.752 50.55 191.352 49.05C189.952 47.55 189.252 45.27 189.252 42.21V29.34C189.252 29.16 189.292 29.02 189.372 28.92C189.472 28.8 189.592 28.74 189.732 28.74H194.052C194.352 28.74 194.502 28.92 194.502 29.28V42.87C194.502 44.49 194.842 45.68 195.522 46.44C196.222 47.18 197.252 47.55 198.612 47.55C201.452 47.55 202.872 45.96 202.872 42.78V29.31C202.872 28.93 203.022 28.74 203.322 28.74H206.742C207.042 28.74 207.192 28.92 207.192 29.28V42.75ZM223.923 33.99C223.403 33.41 222.803 32.96 222.123 32.64C221.463 32.3 220.593 32.13 219.513 32.13C218.293 32.13 217.363 32.35 216.723 32.79C216.083 33.23 215.763 33.81 215.763 34.53C215.763 35.57 216.573 36.33 218.193 36.81L222.933 38.16C224.713 38.66 226.033 39.45 226.893 40.53C227.773 41.61 228.213 42.91 228.213 44.43C228.213 45.83 227.853 47.05 227.133 48.09C226.413 49.11 225.373 49.9 224.013 50.46C222.673 51.02 221.093 51.3 219.273 51.3C217.233 51.3 215.393 50.96 213.753 50.28C212.113 49.58 210.913 48.63 210.153 47.43C210.073 47.29 210.033 47.16 210.033 47.04C210.033 46.88 210.133 46.71 210.333 46.53L212.643 44.94C212.843 44.82 213.023 44.76 213.183 44.76C213.363 44.76 213.513 44.84 213.633 45C214.373 45.96 215.123 46.64 215.883 47.04C216.643 47.44 217.653 47.64 218.913 47.64C220.253 47.64 221.303 47.43 222.063 47.01C222.823 46.59 223.203 45.96 223.203 45.12C223.203 44.58 223.013 44.12 222.633 43.74C222.253 43.36 221.613 43.03 220.713 42.75L216.183 41.46C214.463 40.98 213.133 40.18 212.193 39.06C211.253 37.92 210.783 36.63 210.783 35.19C210.783 33.91 211.133 32.76 211.833 31.74C212.553 30.72 213.563 29.92 214.863 29.34C216.163 28.74 217.663 28.44 219.363 28.44C221.043 28.44 222.583 28.73 223.983 29.31C225.383 29.87 226.453 30.63 227.193 31.59C227.313 31.75 227.373 31.89 227.373 32.01C227.373 32.13 227.313 32.24 227.193 32.34L224.673 34.2C224.553 34.28 224.463 34.32 224.403 34.32C224.303 34.32 224.143 34.21 223.923 33.99Z" fill="white"/>
</svg>
