<svg width="380" height="80" viewBox="0 0 380 80" fill="none" xmlns="http://www.w3.org/2000/svg">
<rect width="380" height="80" fill="#E5A650"/>
<path d="M48.55 28.74C48.75 28.74 48.89 28.81 48.97 28.95C49.07 29.09 49.08 29.25 49 29.43L41.8 50.37C41.66 50.79 41.35 51 40.87 51H37.12C36.64 51 36.32 50.79 36.16 50.37L29.02 29.46L28.96 29.22C28.96 29.08 29.01 28.97 29.11 28.89C29.21 28.79 29.34 28.74 29.5 28.74H33.82C34.14 28.74 34.35 28.91 34.45 29.25L39.37 44.43C39.39 44.57 39.44 44.64 39.52 44.64C39.6 44.64 39.67 44.56 39.73 44.4L44.5 29.25C44.6 28.91 44.82 28.74 45.16 28.74H48.55ZM56.872 28.74C57.192 28.74 57.352 28.92 57.352 29.28V50.28C57.352 50.54 57.292 50.73 57.172 50.85C57.052 50.95 56.842 51 56.542 51H52.762C52.522 51 52.352 50.95 52.252 50.85C52.152 50.75 52.102 50.59 52.102 50.37V29.31C52.102 28.93 52.262 28.74 52.582 28.74H56.872ZM61.5648 29.31C61.5648 28.93 61.7248 28.74 62.0448 28.74H77.1648C77.4648 28.74 77.6148 28.91 77.6148 29.25L77.5848 31.95C77.5848 32.37 77.3748 32.58 76.9548 32.58H67.3848C67.0048 32.58 66.8148 32.74 66.8148 33.06V37.41C66.8148 37.75 66.9648 37.92 67.2648 37.92H73.6248C73.9648 37.92 74.1348 38.08 74.1348 38.4V41.28C74.1348 41.56 73.9748 41.7 73.6548 41.7H67.2348C66.9548 41.7 66.8148 41.82 66.8148 42.06V46.77C66.8148 46.91 66.8348 47.01 66.8748 47.07C66.9348 47.13 67.0248 47.16 67.1448 47.16H77.4048C77.7648 47.16 77.9448 47.31 77.9448 47.61V50.46C77.9448 50.82 77.7448 51 77.3448 51H62.2248C61.9848 51 61.8148 50.95 61.7148 50.85C61.6148 50.75 61.5648 50.59 61.5648 50.37V29.31ZM109.874 28.74C110.354 28.74 110.594 28.95 110.594 29.37C110.594 29.51 110.584 29.61 110.564 29.67L104.444 50.37C104.364 50.59 104.254 50.75 104.114 50.85C103.974 50.95 103.784 51 103.544 51H100.304C99.8038 51 99.4938 50.79 99.3738 50.37L95.5938 37.26C95.5538 37.06 95.5038 36.96 95.4438 36.96C95.4038 36.96 95.3338 37.08 95.2338 37.32L91.4238 50.37C91.3638 50.59 91.2638 50.75 91.1238 50.85C90.9838 50.95 90.7838 51 90.5238 51H87.1938C86.9338 51 86.7337 50.95 86.5938 50.85C86.4538 50.75 86.3438 50.59 86.2638 50.37L80.1438 29.67C80.1238 29.61 80.1138 29.51 80.1138 29.37C80.1138 28.95 80.3638 28.74 80.8638 28.74H84.6138C84.8538 28.74 85.0338 28.78 85.1538 28.86C85.2738 28.94 85.3538 29.07 85.3938 29.25L89.2638 42.9C89.3238 43.14 89.3838 43.26 89.4438 43.26C89.5038 43.26 89.5638 43.17 89.6238 42.99L93.4938 29.25C93.5538 28.91 93.8138 28.74 94.2738 28.74H97.4838C97.7438 28.74 97.9238 28.78 98.0238 28.86C98.1438 28.94 98.2338 29.07 98.2938 29.25L102.224 43.11C102.264 43.25 102.324 43.33 102.404 43.35C102.484 43.35 102.534 43.28 102.554 43.14L106.364 29.25C106.464 28.91 106.734 28.74 107.174 28.74H109.874ZM124.665 28.74C124.985 28.74 125.145 28.92 125.145 29.28V50.28C125.145 50.54 125.085 50.73 124.965 50.85C124.845 50.95 124.635 51 124.335 51H120.555C120.315 51 120.145 50.95 120.045 50.85C119.945 50.75 119.895 50.59 119.895 50.37V29.31C119.895 28.93 120.055 28.74 120.375 28.74H124.665ZM147.538 28.74C147.798 28.74 147.928 28.89 147.928 29.19V50.52C147.928 50.66 147.868 50.78 147.748 50.88C147.648 50.96 147.518 51 147.358 51H144.328C144.148 51 144.008 50.98 143.908 50.94C143.808 50.9 143.698 50.8 143.578 50.64L134.008 37.2C133.928 37.1 133.848 37.06 133.768 37.08C133.708 37.1 133.678 37.16 133.678 37.26V50.46V50.55C133.678 50.71 133.628 50.83 133.528 50.91C133.448 50.97 133.298 51 133.078 51H129.958C129.558 51 129.358 50.83 129.358 50.49V29.31C129.358 28.93 129.538 28.74 129.898 28.74H133.528C133.768 28.74 133.938 28.77 134.038 28.83C134.138 28.87 134.258 28.99 134.398 29.19L143.218 41.76C143.338 41.92 143.438 42 143.518 42C143.618 42 143.668 41.89 143.668 41.67V29.28C143.668 28.92 143.848 28.74 144.208 28.74H147.538ZM164.901 33.99C164.381 33.41 163.781 32.96 163.101 32.64C162.441 32.3 161.571 32.13 160.491 32.13C159.271 32.13 158.341 32.35 157.701 32.79C157.061 33.23 156.741 33.81 156.741 34.53C156.741 35.57 157.551 36.33 159.171 36.81L163.911 38.16C165.691 38.66 167.011 39.45 167.871 40.53C168.751 41.61 169.191 42.91 169.191 44.43C169.191 45.83 168.831 47.05 168.111 48.09C167.391 49.11 166.351 49.9 164.991 50.46C163.651 51.02 162.071 51.3 160.251 51.3C158.211 51.3 156.371 50.96 154.731 50.28C153.091 49.58 151.891 48.63 151.131 47.43C151.051 47.29 151.011 47.16 151.011 47.04C151.011 46.88 151.111 46.71 151.311 46.53L153.621 44.94C153.821 44.82 154.001 44.76 154.161 44.76C154.341 44.76 154.491 44.84 154.611 45C155.351 45.96 156.101 46.64 156.861 47.04C157.621 47.44 158.631 47.64 159.891 47.64C161.231 47.64 162.281 47.43 163.041 47.01C163.801 46.59 164.181 45.96 164.181 45.12C164.181 44.58 163.991 44.12 163.611 43.74C163.231 43.36 162.591 43.03 161.691 42.75L157.161 41.46C155.441 40.98 154.111 40.18 153.171 39.06C152.231 37.92 151.761 36.63 151.761 35.19C151.761 33.91 152.111 32.76 152.811 31.74C153.531 30.72 154.541 29.92 155.841 29.34C157.141 28.74 158.641 28.44 160.341 28.44C162.021 28.44 163.561 28.73 164.961 29.31C166.361 29.87 167.431 30.63 168.171 31.59C168.291 31.75 168.351 31.89 168.351 32.01C168.351 32.13 168.291 32.24 168.171 32.34L165.651 34.2C165.531 34.28 165.441 34.32 165.381 34.32C165.281 34.32 165.121 34.21 164.901 33.99ZM171.314 29.28C171.314 29.12 171.364 28.99 171.464 28.89C171.584 28.79 171.734 28.74 171.914 28.74H189.134C189.534 28.74 189.734 28.92 189.734 29.28V32.07C189.734 32.37 189.554 32.52 189.194 32.52H183.584C183.364 32.52 183.254 32.62 183.254 32.82V50.43C183.254 50.81 183.084 51 182.744 51H178.454C178.154 51 178.004 50.83 178.004 50.49V32.91C178.004 32.77 177.974 32.67 177.914 32.61C177.874 32.55 177.794 32.52 177.674 32.52H171.884C171.504 32.52 171.314 32.37 171.314 32.07V29.28ZM210.904 50.19C210.944 50.31 210.964 50.4 210.964 50.46C210.964 50.62 210.914 50.75 210.814 50.85C210.714 50.95 210.594 51 210.454 51H206.044C205.704 51 205.484 50.82 205.384 50.46L202.144 42.06C202.084 41.9 201.994 41.79 201.874 41.73C201.754 41.67 201.564 41.64 201.304 41.64H198.454C198.334 41.64 198.244 41.68 198.184 41.76C198.124 41.82 198.094 41.89 198.094 41.97V50.28C198.094 50.54 198.024 50.73 197.884 50.85C197.764 50.95 197.564 51 197.284 51H193.474C193.234 51 193.064 50.95 192.964 50.85C192.884 50.75 192.844 50.6 192.844 50.4V29.31C192.844 28.93 193.004 28.74 193.324 28.74H202.684C205.384 28.74 207.474 29.27 208.954 30.33C210.434 31.39 211.174 32.9 211.174 34.86C211.174 36.32 210.784 37.57 210.004 38.61C209.224 39.63 208.244 40.35 207.064 40.77C206.904 40.83 206.864 40.98 206.944 41.22L210.904 50.19ZM202.204 38.1C203.364 38.1 204.244 37.86 204.844 37.38C205.444 36.88 205.744 36.16 205.744 35.22C205.744 34.26 205.434 33.53 204.814 33.03C204.214 32.51 203.394 32.25 202.354 32.25H198.664C198.444 32.25 198.294 32.29 198.214 32.37C198.134 32.43 198.094 32.55 198.094 32.73V37.59C198.094 37.77 198.124 37.9 198.184 37.98C198.244 38.06 198.354 38.1 198.514 38.1H202.204ZM232.165 42.75C232.165 45.79 231.395 47.98 229.855 49.32C228.315 50.64 226.095 51.3 223.195 51.3C220.015 51.3 217.725 50.55 216.325 49.05C214.925 47.55 214.225 45.27 214.225 42.21V29.34C214.225 29.16 214.265 29.02 214.345 28.92C214.445 28.8 214.565 28.74 214.705 28.74H219.025C219.325 28.74 219.475 28.92 219.475 29.28V42.87C219.475 44.49 219.815 45.68 220.495 46.44C221.195 47.18 222.225 47.55 223.585 47.55C226.425 47.55 227.845 45.96 227.845 42.78V29.31C227.845 28.93 227.995 28.74 228.295 28.74H231.715C232.015 28.74 232.165 28.92 232.165 29.28V42.75ZM245.476 28.44C246.996 28.44 248.396 28.73 249.676 29.31C250.956 29.89 252.006 30.68 252.826 31.68C253.666 32.68 254.196 33.8 254.416 35.04C254.456 35.18 254.476 35.34 254.476 35.52C254.476 35.64 254.446 35.72 254.386 35.76C254.326 35.8 254.236 35.83 254.116 35.85L250.066 36.12C249.886 36.12 249.766 36.09 249.706 36.03C249.666 35.97 249.626 35.85 249.586 35.67C249.366 34.57 248.926 33.7 248.266 33.06C247.606 32.42 246.726 32.1 245.626 32.1C242.426 32.1 240.826 34.66 240.826 39.78C240.826 42.44 241.226 44.38 242.026 45.6C242.826 46.82 244.046 47.43 245.686 47.43C246.886 47.43 247.896 47.13 248.716 46.53C249.556 45.93 250.236 44.95 250.756 43.59C250.816 43.45 250.946 43.38 251.146 43.38C251.266 43.38 251.356 43.39 251.416 43.41L254.356 44.04C254.636 44.14 254.746 44.39 254.686 44.79C254.486 45.65 254.016 46.58 253.276 47.58C252.556 48.58 251.536 49.45 250.216 50.19C248.896 50.93 247.316 51.3 245.476 51.3C243.416 51.3 241.616 50.82 240.076 49.86C238.556 48.88 237.386 47.52 236.566 45.78C235.746 44.02 235.336 41.99 235.336 39.69C235.336 37.41 235.746 35.42 236.566 33.72C237.386 32.02 238.556 30.72 240.076 29.82C241.616 28.9 243.416 28.44 245.476 28.44ZM256.744 29.28C256.744 29.12 256.794 28.99 256.894 28.89C257.014 28.79 257.164 28.74 257.344 28.74H274.564C274.964 28.74 275.164 28.92 275.164 29.28V32.07C275.164 32.37 274.984 32.52 274.624 32.52H269.014C268.794 32.52 268.684 32.62 268.684 32.82V50.43C268.684 50.81 268.514 51 268.174 51H263.884C263.584 51 263.434 50.83 263.434 50.49V32.91C263.434 32.77 263.404 32.67 263.344 32.61C263.304 32.55 263.224 32.52 263.104 32.52H257.314C256.934 32.52 256.744 32.37 256.744 32.07V29.28ZM283.044 28.74C283.364 28.74 283.524 28.92 283.524 29.28V50.28C283.524 50.54 283.464 50.73 283.344 50.85C283.224 50.95 283.014 51 282.714 51H278.934C278.694 51 278.524 50.95 278.424 50.85C278.324 50.75 278.274 50.59 278.274 50.37V29.31C278.274 28.93 278.434 28.74 278.754 28.74H283.044ZM297.277 51.3C295.177 51.3 293.347 50.85 291.787 49.95C290.247 49.03 289.057 47.72 288.217 46.02C287.397 44.32 286.987 42.3 286.987 39.96C286.987 37.6 287.407 35.56 288.247 33.84C289.087 32.1 290.277 30.77 291.817 29.85C293.377 28.91 295.197 28.44 297.277 28.44C299.337 28.44 301.137 28.91 302.677 29.85C304.217 30.77 305.407 32.1 306.247 33.84C307.087 35.56 307.507 37.59 307.507 39.93C307.507 42.25 307.087 44.27 306.247 45.99C305.427 47.69 304.247 49 302.707 49.92C301.167 50.84 299.357 51.3 297.277 51.3ZM297.277 47.61C298.937 47.61 300.137 47.01 300.877 45.81C301.637 44.61 302.017 42.67 302.017 39.99C302.017 37.25 301.627 35.25 300.847 33.99C300.087 32.73 298.897 32.1 297.277 32.1C295.617 32.1 294.397 32.73 293.617 33.99C292.857 35.25 292.477 37.25 292.477 39.99C292.477 42.67 292.857 44.61 293.617 45.81C294.377 47.01 295.597 47.61 297.277 47.61ZM329.149 28.74C329.409 28.74 329.539 28.89 329.539 29.19V50.52C329.539 50.66 329.479 50.78 329.359 50.88C329.259 50.96 329.129 51 328.969 51H325.939C325.759 51 325.619 50.98 325.519 50.94C325.419 50.9 325.309 50.8 325.189 50.64L315.619 37.2C315.539 37.1 315.459 37.06 315.379 37.08C315.319 37.1 315.289 37.16 315.289 37.26V50.46V50.55C315.289 50.71 315.239 50.83 315.139 50.91C315.059 50.97 314.909 51 314.689 51H311.569C311.169 51 310.969 50.83 310.969 50.49V29.31C310.969 28.93 311.149 28.74 311.509 28.74H315.139C315.379 28.74 315.549 28.77 315.649 28.83C315.749 28.87 315.869 28.99 316.009 29.19L324.829 41.76C324.949 41.92 325.049 42 325.129 42C325.229 42 325.279 41.89 325.279 41.67V29.28C325.279 28.92 325.459 28.74 325.819 28.74H329.149ZM346.513 33.99C345.993 33.41 345.393 32.96 344.713 32.64C344.053 32.3 343.183 32.13 342.103 32.13C340.883 32.13 339.953 32.35 339.313 32.79C338.673 33.23 338.353 33.81 338.353 34.53C338.353 35.57 339.163 36.33 340.783 36.81L345.523 38.16C347.303 38.66 348.623 39.45 349.483 40.53C350.363 41.61 350.803 42.91 350.803 44.43C350.803 45.83 350.443 47.05 349.723 48.09C349.003 49.11 347.963 49.9 346.603 50.46C345.263 51.02 343.683 51.3 341.863 51.3C339.823 51.3 337.983 50.96 336.343 50.28C334.703 49.58 333.503 48.63 332.743 47.43C332.663 47.29 332.623 47.16 332.623 47.04C332.623 46.88 332.723 46.71 332.923 46.53L335.233 44.94C335.433 44.82 335.613 44.76 335.773 44.76C335.953 44.76 336.103 44.84 336.223 45C336.963 45.96 337.713 46.64 338.473 47.04C339.233 47.44 340.243 47.64 341.503 47.64C342.843 47.64 343.893 47.43 344.653 47.01C345.413 46.59 345.793 45.96 345.793 45.12C345.793 44.58 345.603 44.12 345.223 43.74C344.843 43.36 344.203 43.03 343.303 42.75L338.773 41.46C337.053 40.98 335.723 40.18 334.783 39.06C333.843 37.92 333.373 36.63 333.373 35.19C333.373 33.91 333.723 32.76 334.423 31.74C335.143 30.72 336.153 29.92 337.453 29.34C338.753 28.74 340.253 28.44 341.953 28.44C343.633 28.44 345.173 28.73 346.573 29.31C347.973 29.87 349.043 30.63 349.783 31.59C349.903 31.75 349.963 31.89 349.963 32.01C349.963 32.13 349.903 32.24 349.783 32.34L347.263 34.2C347.143 34.28 347.053 34.32 346.993 34.32C346.893 34.32 346.733 34.21 346.513 33.99Z" fill="white"/>
</svg>
