<svg width="300" height="80" viewBox="0 0 300 80" fill="none" xmlns="http://www.w3.org/2000/svg">
<rect width="300" height="80" fill="#E5A650"/>
<path d="M77.31 35.67C77.31 37.83 76.56 39.51 75.06 40.71C73.58 41.89 71.62 42.48 69.18 42.48H64.68C64.46 42.48 64.35 42.59 64.35 42.81V50.31C64.35 50.77 64.09 51 63.57 51H59.73C59.49 51 59.32 50.95 59.22 50.85C59.14 50.75 59.1 50.6 59.1 50.4V29.31C59.1 28.93 59.26 28.74 59.58 28.74H68.58C70.24 28.74 71.72 29 73.02 29.52C74.34 30.02 75.38 30.79 76.14 31.83C76.92 32.87 77.31 34.15 77.31 35.67ZM71.91 35.58C71.91 34.56 71.58 33.79 70.92 33.27C70.26 32.75 69.37 32.49 68.25 32.49H64.92C64.72 32.49 64.57 32.53 64.47 32.61C64.39 32.69 64.35 32.83 64.35 33.03V38.16C64.35 38.36 64.38 38.51 64.44 38.61C64.5 38.69 64.61 38.73 64.77 38.73H68.46C69.52 38.73 70.36 38.45 70.98 37.89C71.6 37.33 71.91 36.56 71.91 35.58ZM90.0853 51.3C87.9853 51.3 86.1553 50.85 84.5953 49.95C83.0553 49.03 81.8653 47.72 81.0253 46.02C80.2053 44.32 79.7953 42.3 79.7953 39.96C79.7953 37.6 80.2153 35.56 81.0553 33.84C81.8953 32.1 83.0853 30.77 84.6253 29.85C86.1853 28.91 88.0053 28.44 90.0853 28.44C92.1453 28.44 93.9453 28.91 95.4853 29.85C97.0253 30.77 98.2153 32.1 99.0553 33.84C99.8953 35.56 100.315 37.59 100.315 39.93C100.315 42.25 99.8953 44.27 99.0553 45.99C98.2353 47.69 97.0553 49 95.5153 49.92C93.9753 50.84 92.1653 51.3 90.0853 51.3ZM90.0853 47.61C91.7453 47.61 92.9453 47.01 93.6853 45.81C94.4453 44.61 94.8253 42.67 94.8253 39.99C94.8253 37.25 94.4353 35.25 93.6553 33.99C92.8953 32.73 91.7053 32.1 90.0853 32.1C88.4253 32.1 87.2053 32.73 86.4253 33.99C85.6653 35.25 85.2853 37.25 85.2853 39.99C85.2853 42.67 85.6653 44.61 86.4253 45.81C87.1853 47.01 88.4053 47.61 90.0853 47.61ZM116.558 33.99C116.038 33.41 115.438 32.96 114.758 32.64C114.098 32.3 113.228 32.13 112.148 32.13C110.928 32.13 109.998 32.35 109.358 32.79C108.718 33.23 108.398 33.81 108.398 34.53C108.398 35.57 109.208 36.33 110.828 36.81L115.568 38.16C117.348 38.66 118.668 39.45 119.528 40.53C120.408 41.61 120.848 42.91 120.848 44.43C120.848 45.83 120.488 47.05 119.768 48.09C119.048 49.11 118.008 49.9 116.648 50.46C115.308 51.02 113.728 51.3 111.908 51.3C109.868 51.3 108.028 50.96 106.388 50.28C104.748 49.58 103.548 48.63 102.788 47.43C102.708 47.29 102.668 47.16 102.668 47.04C102.668 46.88 102.768 46.71 102.968 46.53L105.278 44.94C105.478 44.82 105.658 44.76 105.818 44.76C105.998 44.76 106.148 44.84 106.268 45C107.008 45.96 107.758 46.64 108.518 47.04C109.278 47.44 110.288 47.64 111.548 47.64C112.888 47.64 113.938 47.43 114.698 47.01C115.458 46.59 115.838 45.96 115.838 45.12C115.838 44.58 115.648 44.12 115.268 43.74C114.888 43.36 114.248 43.03 113.348 42.75L108.818 41.46C107.098 40.98 105.768 40.18 104.828 39.06C103.888 37.92 103.418 36.63 103.418 35.19C103.418 33.91 103.768 32.76 104.468 31.74C105.188 30.72 106.198 29.92 107.498 29.34C108.798 28.74 110.298 28.44 111.998 28.44C113.678 28.44 115.218 28.73 116.618 29.31C118.018 29.87 119.088 30.63 119.828 31.59C119.948 31.75 120.008 31.89 120.008 32.01C120.008 32.13 119.948 32.24 119.828 32.34L117.308 34.2C117.188 34.28 117.098 34.32 117.038 34.32C116.938 34.32 116.778 34.21 116.558 33.99ZM122.97 29.28C122.97 29.12 123.02 28.99 123.12 28.89C123.24 28.79 123.39 28.74 123.57 28.74H140.79C141.19 28.74 141.39 28.92 141.39 29.28V32.07C141.39 32.37 141.21 32.52 140.85 32.52H135.24C135.02 32.52 134.91 32.62 134.91 32.82V50.43C134.91 50.81 134.74 51 134.4 51H130.11C129.81 51 129.66 50.83 129.66 50.49V32.91C129.66 32.77 129.63 32.67 129.57 32.61C129.53 32.55 129.45 32.52 129.33 32.52H123.54C123.16 32.52 122.97 32.37 122.97 32.07V29.28ZM169.132 28.74C169.332 28.74 169.472 28.81 169.552 28.95C169.652 29.09 169.662 29.25 169.582 29.43L162.382 50.37C162.242 50.79 161.932 51 161.452 51H157.702C157.222 51 156.902 50.79 156.742 50.37L149.602 29.46L149.542 29.22C149.542 29.08 149.592 28.97 149.692 28.89C149.792 28.79 149.922 28.74 150.082 28.74H154.402C154.722 28.74 154.932 28.91 155.032 29.25L159.952 44.43C159.972 44.57 160.022 44.64 160.102 44.64C160.182 44.64 160.252 44.56 160.312 44.4L165.082 29.25C165.182 28.91 165.402 28.74 165.742 28.74H169.132ZM177.454 28.74C177.774 28.74 177.934 28.92 177.934 29.28V50.28C177.934 50.54 177.874 50.73 177.754 50.85C177.634 50.95 177.424 51 177.124 51H173.344C173.104 51 172.934 50.95 172.834 50.85C172.734 50.75 172.684 50.59 172.684 50.37V29.31C172.684 28.93 172.844 28.74 173.164 28.74H177.454ZM182.807 28.74C186.107 28.74 188.337 28.75 189.497 28.77C193.457 28.89 196.407 29.9 198.347 31.8C200.287 33.7 201.257 36.36 201.257 39.78C201.257 43.3 200.247 46.05 198.227 48.03C196.207 50.01 193.247 51 189.347 51H182.837C182.597 51 182.417 50.95 182.297 50.85C182.197 50.73 182.147 50.54 182.147 50.28V29.34C182.147 29.12 182.197 28.97 182.297 28.89C182.397 28.79 182.567 28.74 182.807 28.74ZM187.667 32.46C187.487 32.46 187.397 32.6 187.397 32.88V46.89C187.397 47.05 187.417 47.16 187.457 47.22C187.517 47.28 187.627 47.31 187.787 47.31H188.357C190.877 47.31 192.737 46.73 193.937 45.57C195.157 44.39 195.767 42.45 195.767 39.75C195.767 37.25 195.257 35.45 194.237 34.35C193.217 33.25 191.637 32.64 189.497 32.52L187.667 32.46ZM204.676 29.31C204.676 28.93 204.836 28.74 205.156 28.74H220.276C220.576 28.74 220.726 28.91 220.726 29.25L220.696 31.95C220.696 32.37 220.486 32.58 220.066 32.58H210.496C210.116 32.58 209.926 32.74 209.926 33.06V37.41C209.926 37.75 210.076 37.92 210.376 37.92H216.736C217.076 37.92 217.246 38.08 217.246 38.4V41.28C217.246 41.56 217.086 41.7 216.766 41.7H210.346C210.066 41.7 209.926 41.82 209.926 42.06V46.77C209.926 46.91 209.946 47.01 209.986 47.07C210.046 47.13 210.136 47.16 210.256 47.16H220.516C220.876 47.16 221.056 47.31 221.056 47.61V50.46C221.056 50.82 220.856 51 220.456 51H205.336C205.096 51 204.926 50.95 204.826 50.85C204.726 50.75 204.676 50.59 204.676 50.37V29.31ZM232.234 51.3C230.134 51.3 228.304 50.85 226.744 49.95C225.204 49.03 224.014 47.72 223.174 46.02C222.354 44.32 221.944 42.3 221.944 39.96C221.944 37.6 222.364 35.56 223.204 33.84C224.044 32.1 225.234 30.77 226.774 29.85C228.334 28.91 230.154 28.44 232.234 28.44C234.294 28.44 236.094 28.91 237.634 29.85C239.174 30.77 240.364 32.1 241.204 33.84C242.044 35.56 242.464 37.59 242.464 39.93C242.464 42.25 242.044 44.27 241.204 45.99C240.384 47.69 239.204 49 237.664 49.92C236.124 50.84 234.314 51.3 232.234 51.3ZM232.234 47.61C233.894 47.61 235.094 47.01 235.834 45.81C236.594 44.61 236.974 42.67 236.974 39.99C236.974 37.25 236.584 35.25 235.804 33.99C235.044 32.73 233.854 32.1 232.234 32.1C230.574 32.1 229.354 32.73 228.574 33.99C227.814 35.25 227.434 37.25 227.434 39.99C227.434 42.67 227.814 44.61 228.574 45.81C229.334 47.01 230.554 47.61 232.234 47.61Z" fill="white"/>
</svg>
