<svg width="380" height="80" viewBox="0 0 380 80" fill="none" xmlns="http://www.w3.org/2000/svg">
<rect width="380" height="80" fill="#E5A650"/>
<path d="M38.1 29.31C38.1 28.93 38.26 28.74 38.58 28.74H53.7C54 28.74 54.15 28.91 54.15 29.25L54.12 31.95C54.12 32.37 53.91 32.58 53.49 32.58H43.92C43.54 32.58 43.35 32.74 43.35 33.06V37.41C43.35 37.75 43.5 37.92 43.8 37.92H50.16C50.5 37.92 50.67 38.08 50.67 38.4V41.28C50.67 41.56 50.51 41.7 50.19 41.7H43.77C43.49 41.7 43.35 41.82 43.35 42.06V46.77C43.35 46.91 43.37 47.01 43.41 47.07C43.47 47.13 43.56 47.16 43.68 47.16H53.94C54.3 47.16 54.48 47.31 54.48 47.61V50.46C54.48 50.82 54.28 51 53.88 51H38.76C38.52 51 38.35 50.95 38.25 50.85C38.15 50.75 38.1 50.59 38.1 50.37V29.31ZM76.2389 49.83C76.4389 50.15 76.5389 50.41 76.5389 50.61C76.5389 50.87 76.3289 51 75.9089 51H71.7389C71.2789 51 70.9589 50.85 70.7789 50.55L66.5489 43.74C66.4089 43.48 66.2789 43.35 66.1589 43.35C66.0389 43.35 65.9089 43.48 65.7689 43.74L61.5689 50.55C61.4089 50.85 61.0789 51 60.5789 51H57.2489C56.8289 51 56.6189 50.88 56.6189 50.64C56.6189 50.42 56.7289 50.15 56.9489 49.83L63.2489 40.2C63.3689 40.02 63.4289 39.87 63.4289 39.75C63.4289 39.65 63.3589 39.48 63.2189 39.24L56.9189 29.55C56.8389 29.45 56.7989 29.32 56.7989 29.16C56.7989 28.88 56.9589 28.74 57.2789 28.74H61.6589C61.8989 28.74 62.0889 28.78 62.2289 28.86C62.3689 28.94 62.4889 29.06 62.5889 29.22L66.3089 35.31C66.4089 35.47 66.5089 35.55 66.6089 35.55C66.7289 35.55 66.8389 35.47 66.9389 35.31L70.6589 29.22C70.7589 29.04 70.8689 28.92 70.9889 28.86C71.1289 28.78 71.3189 28.74 71.5589 28.74H75.2189C75.5189 28.74 75.6689 28.85 75.6689 29.07C75.6689 29.19 75.6189 29.33 75.5189 29.49L69.4589 38.67C69.3589 38.87 69.3089 39.02 69.3089 39.12C69.3089 39.22 69.3689 39.38 69.4889 39.6L76.2389 49.83ZM78.9244 51C78.6244 51 78.4744 50.83 78.4744 50.49C78.4744 50.33 78.4944 50.21 78.5344 50.13L86.0044 29.34C86.0844 29.12 86.1744 28.97 86.2744 28.89C86.3944 28.79 86.5644 28.74 86.7844 28.74H91.2844C91.5044 28.74 91.6944 28.8 91.8544 28.92C92.0144 29.04 92.1244 29.2 92.1844 29.4L99.5944 50.19C99.6344 50.31 99.6544 50.4 99.6544 50.46C99.6544 50.62 99.6144 50.75 99.5344 50.85C99.4744 50.95 99.3744 51 99.2344 51H94.8244C94.5244 51 94.3344 50.86 94.2544 50.58L92.6944 46.2C92.6544 46.08 92.6044 46 92.5444 45.96C92.5044 45.9 92.4244 45.87 92.3044 45.87H84.9844C84.7844 45.87 84.6544 45.97 84.5944 46.17L83.0044 50.61C82.8844 50.87 82.6744 51 82.3744 51H78.9244ZM91.0744 41.88C91.2744 41.88 91.3744 41.8 91.3744 41.64C91.3744 41.52 91.3644 41.43 91.3444 41.37L88.8244 34.35C88.7644 34.23 88.6944 34.17 88.6144 34.17C88.5544 34.17 88.4944 34.24 88.4344 34.38L85.8844 41.37C85.8444 41.49 85.8244 41.58 85.8244 41.64C85.8244 41.8 85.9344 41.88 86.1544 41.88H91.0744ZM103.359 51C103.159 51 102.999 50.94 102.879 50.82C102.779 50.7 102.729 50.53 102.729 50.31V29.31C102.729 28.93 102.899 28.74 103.239 28.74H109.449C109.669 28.74 109.829 28.77 109.929 28.83C110.029 28.89 110.109 29.01 110.169 29.19L114.699 41.76C114.759 41.92 114.829 42 114.909 42C114.989 42 115.059 41.92 115.119 41.76L119.439 29.43C119.559 28.97 119.779 28.74 120.099 28.74H126.549C126.849 28.74 126.999 28.92 126.999 29.28V50.28C126.999 50.54 126.939 50.73 126.819 50.85C126.699 50.95 126.509 51 126.249 51H122.379C122.139 51 121.969 50.96 121.869 50.88C121.789 50.78 121.749 50.62 121.749 50.4V35.46C121.749 35.32 121.719 35.25 121.659 35.25C121.599 35.25 121.539 35.33 121.479 35.49L116.229 50.52C116.129 50.84 115.919 51 115.599 51H113.109C112.749 51 112.529 50.84 112.449 50.52L107.259 35.7C107.199 35.54 107.139 35.46 107.079 35.46C106.999 35.46 106.959 35.55 106.959 35.73V50.46C106.959 50.68 106.919 50.83 106.839 50.91C106.779 50.97 106.639 51 106.419 51H103.359ZM149.415 35.67C149.415 37.83 148.665 39.51 147.165 40.71C145.685 41.89 143.725 42.48 141.285 42.48H136.785C136.565 42.48 136.455 42.59 136.455 42.81V50.31C136.455 50.77 136.195 51 135.675 51H131.835C131.595 51 131.425 50.95 131.325 50.85C131.245 50.75 131.205 50.6 131.205 50.4V29.31C131.205 28.93 131.365 28.74 131.685 28.74H140.685C142.345 28.74 143.825 29 145.125 29.52C146.445 30.02 147.485 30.79 148.245 31.83C149.025 32.87 149.415 34.15 149.415 35.67ZM144.015 35.58C144.015 34.56 143.685 33.79 143.025 33.27C142.365 32.75 141.475 32.49 140.355 32.49H137.025C136.825 32.49 136.675 32.53 136.575 32.61C136.495 32.69 136.455 32.83 136.455 33.03V38.16C136.455 38.36 136.485 38.51 136.545 38.61C136.605 38.69 136.715 38.73 136.875 38.73H140.565C141.625 38.73 142.465 38.45 143.085 37.89C143.705 37.33 144.015 36.56 144.015 35.58ZM152.651 29.31C152.651 28.93 152.811 28.74 153.131 28.74H157.421C157.741 28.74 157.901 28.92 157.901 29.28V46.77C157.901 46.91 157.921 47.01 157.961 47.07C158.021 47.13 158.111 47.16 158.231 47.16H167.801C168.161 47.16 168.341 47.31 168.341 47.61V50.46C168.341 50.62 168.291 50.75 168.191 50.85C168.091 50.95 167.951 51 167.771 51H153.311C153.071 51 152.901 50.95 152.801 50.85C152.701 50.75 152.651 50.59 152.651 50.37V29.31ZM171.459 29.31C171.459 28.93 171.619 28.74 171.939 28.74H187.059C187.359 28.74 187.509 28.91 187.509 29.25L187.479 31.95C187.479 32.37 187.269 32.58 186.849 32.58H177.279C176.899 32.58 176.709 32.74 176.709 33.06V37.41C176.709 37.75 176.859 37.92 177.159 37.92H183.519C183.859 37.92 184.029 38.08 184.029 38.4V41.28C184.029 41.56 183.869 41.7 183.549 41.7H177.129C176.849 41.7 176.709 41.82 176.709 42.06V46.77C176.709 46.91 176.729 47.01 176.769 47.07C176.829 47.13 176.919 47.16 177.039 47.16H187.299C187.659 47.16 187.839 47.31 187.839 47.61V50.46C187.839 50.82 187.639 51 187.239 51H172.119C171.879 51 171.709 50.95 171.609 50.85C171.509 50.75 171.459 50.59 171.459 50.37V29.31ZM210.05 33.99C209.53 33.41 208.93 32.96 208.25 32.64C207.59 32.3 206.72 32.13 205.64 32.13C204.42 32.13 203.49 32.35 202.85 32.79C202.21 33.23 201.89 33.81 201.89 34.53C201.89 35.57 202.7 36.33 204.32 36.81L209.06 38.16C210.84 38.66 212.16 39.45 213.02 40.53C213.9 41.61 214.34 42.91 214.34 44.43C214.34 45.83 213.98 47.05 213.26 48.09C212.54 49.11 211.5 49.9 210.14 50.46C208.8 51.02 207.22 51.3 205.4 51.3C203.36 51.3 201.52 50.96 199.88 50.28C198.24 49.58 197.04 48.63 196.28 47.43C196.2 47.29 196.16 47.16 196.16 47.04C196.16 46.88 196.26 46.71 196.46 46.53L198.77 44.94C198.97 44.82 199.15 44.76 199.31 44.76C199.49 44.76 199.64 44.84 199.76 45C200.5 45.96 201.25 46.64 202.01 47.04C202.77 47.44 203.78 47.64 205.04 47.64C206.38 47.64 207.43 47.43 208.19 47.01C208.95 46.59 209.33 45.96 209.33 45.12C209.33 44.58 209.14 44.12 208.76 43.74C208.38 43.36 207.74 43.03 206.84 42.75L202.31 41.46C200.59 40.98 199.26 40.18 198.32 39.06C197.38 37.92 196.91 36.63 196.91 35.19C196.91 33.91 197.26 32.76 197.96 31.74C198.68 30.72 199.69 29.92 200.99 29.34C202.29 28.74 203.79 28.44 205.49 28.44C207.17 28.44 208.71 28.73 210.11 29.31C211.51 29.87 212.58 30.63 213.32 31.59C213.44 31.75 213.5 31.89 213.5 32.01C213.5 32.13 213.44 32.24 213.32 32.34L210.8 34.2C210.68 34.28 210.59 34.32 210.53 34.32C210.43 34.32 210.27 34.21 210.05 33.99ZM235.783 35.67C235.783 37.83 235.033 39.51 233.533 40.71C232.053 41.89 230.093 42.48 227.653 42.48H223.153C222.933 42.48 222.823 42.59 222.823 42.81V50.31C222.823 50.77 222.563 51 222.043 51H218.203C217.963 51 217.793 50.95 217.693 50.85C217.613 50.75 217.573 50.6 217.573 50.4V29.31C217.573 28.93 217.733 28.74 218.053 28.74H227.053C228.713 28.74 230.193 29 231.493 29.52C232.813 30.02 233.853 30.79 234.613 31.83C235.393 32.87 235.783 34.15 235.783 35.67ZM230.383 35.58C230.383 34.56 230.053 33.79 229.393 33.27C228.733 32.75 227.843 32.49 226.723 32.49H223.393C223.193 32.49 223.043 32.53 222.943 32.61C222.863 32.69 222.823 32.83 222.823 33.03V38.16C222.823 38.36 222.853 38.51 222.913 38.61C222.973 38.69 223.083 38.73 223.243 38.73H226.933C227.993 38.73 228.833 38.45 229.453 37.89C230.073 37.33 230.383 36.56 230.383 35.58ZM239.018 29.31C239.018 28.93 239.178 28.74 239.498 28.74H254.618C254.918 28.74 255.068 28.91 255.068 29.25L255.038 31.95C255.038 32.37 254.828 32.58 254.408 32.58H244.838C244.458 32.58 244.268 32.74 244.268 33.06V37.41C244.268 37.75 244.418 37.92 244.718 37.92H251.078C251.418 37.92 251.588 38.08 251.588 38.4V41.28C251.588 41.56 251.428 41.7 251.108 41.7H244.688C244.408 41.7 244.268 41.82 244.268 42.06V46.77C244.268 46.91 244.288 47.01 244.328 47.07C244.388 47.13 244.478 47.16 244.598 47.16H254.858C255.218 47.16 255.398 47.31 255.398 47.61V50.46C255.398 50.82 255.198 51 254.798 51H239.678C239.438 51 239.268 50.95 239.168 50.85C239.068 50.75 239.018 50.59 239.018 50.37V29.31ZM257.987 51C257.687 51 257.537 50.83 257.537 50.49C257.537 50.33 257.557 50.21 257.597 50.13L265.067 29.34C265.147 29.12 265.237 28.97 265.337 28.89C265.457 28.79 265.627 28.74 265.847 28.74H270.347C270.567 28.74 270.757 28.8 270.917 28.92C271.077 29.04 271.187 29.2 271.247 29.4L278.657 50.19C278.697 50.31 278.717 50.4 278.717 50.46C278.717 50.62 278.677 50.75 278.597 50.85C278.537 50.95 278.437 51 278.297 51H273.887C273.587 51 273.397 50.86 273.317 50.58L271.757 46.2C271.717 46.08 271.667 46 271.607 45.96C271.567 45.9 271.487 45.87 271.367 45.87H264.047C263.847 45.87 263.717 45.97 263.657 46.17L262.067 50.61C261.947 50.87 261.737 51 261.437 51H257.987ZM270.137 41.88C270.337 41.88 270.437 41.8 270.437 41.64C270.437 41.52 270.427 41.43 270.407 41.37L267.887 34.35C267.827 34.23 267.757 34.17 267.677 34.17C267.617 34.17 267.557 34.24 267.497 34.38L264.947 41.37C264.907 41.49 264.887 41.58 264.887 41.64C264.887 41.8 264.997 41.88 265.217 41.88H270.137ZM300.991 50.28C301.051 50.4 301.081 50.52 301.081 50.64C301.081 50.88 300.941 51 300.661 51H296.161C295.741 51 295.451 50.84 295.291 50.52L290.461 41.1C290.401 40.98 290.331 40.92 290.251 40.92C290.171 40.92 290.051 41.02 289.891 41.22L287.221 44.4C287.101 44.54 287.041 44.75 287.041 45.03V50.31C287.041 50.55 286.971 50.73 286.831 50.85C286.711 50.95 286.511 51 286.231 51H282.451C282.211 51 282.041 50.96 281.941 50.88C281.841 50.78 281.791 50.62 281.791 50.4V29.31C281.791 28.93 281.951 28.74 282.271 28.74H286.591C286.891 28.74 287.041 28.91 287.041 29.25V38.22C287.041 38.42 287.081 38.52 287.161 38.52C287.221 38.52 287.301 38.46 287.401 38.34L294.661 29.22C294.781 29.04 294.911 28.92 295.051 28.86C295.191 28.78 295.401 28.74 295.681 28.74H299.251C299.431 28.74 299.571 28.78 299.671 28.86C299.791 28.94 299.851 29.03 299.851 29.13C299.851 29.25 299.811 29.35 299.731 29.43L293.971 36.18C293.871 36.34 293.821 36.46 293.821 36.54C293.821 36.62 293.851 36.74 293.911 36.9L300.991 50.28ZM304.116 29.31C304.116 28.93 304.276 28.74 304.596 28.74H319.716C320.016 28.74 320.166 28.91 320.166 29.25L320.136 31.95C320.136 32.37 319.926 32.58 319.506 32.58H309.936C309.556 32.58 309.366 32.74 309.366 33.06V37.41C309.366 37.75 309.516 37.92 309.816 37.92H316.176C316.516 37.92 316.686 38.08 316.686 38.4V41.28C316.686 41.56 316.526 41.7 316.206 41.7H309.786C309.506 41.7 309.366 41.82 309.366 42.06V46.77C309.366 46.91 309.386 47.01 309.426 47.07C309.486 47.13 309.576 47.16 309.696 47.16H319.956C320.316 47.16 320.496 47.31 320.496 47.61V50.46C320.496 50.82 320.296 51 319.896 51H304.776C304.536 51 304.366 50.95 304.266 50.85C304.166 50.75 304.116 50.59 304.116 50.37V29.31ZM341.805 50.19C341.845 50.31 341.865 50.4 341.865 50.46C341.865 50.62 341.815 50.75 341.715 50.85C341.615 50.95 341.495 51 341.355 51H336.945C336.605 51 336.385 50.82 336.285 50.46L333.045 42.06C332.985 41.9 332.895 41.79 332.775 41.73C332.655 41.67 332.465 41.64 332.205 41.64H329.355C329.235 41.64 329.145 41.68 329.085 41.76C329.025 41.82 328.995 41.89 328.995 41.97V50.28C328.995 50.54 328.925 50.73 328.785 50.85C328.665 50.95 328.465 51 328.185 51H324.375C324.135 51 323.965 50.95 323.865 50.85C323.785 50.75 323.745 50.6 323.745 50.4V29.31C323.745 28.93 323.905 28.74 324.225 28.74H333.585C336.285 28.74 338.375 29.27 339.855 30.33C341.335 31.39 342.075 32.9 342.075 34.86C342.075 36.32 341.685 37.57 340.905 38.61C340.125 39.63 339.145 40.35 337.965 40.77C337.805 40.83 337.765 40.98 337.845 41.22L341.805 50.19ZM333.105 38.1C334.265 38.1 335.145 37.86 335.745 37.38C336.345 36.88 336.645 36.16 336.645 35.22C336.645 34.26 336.335 33.53 335.715 33.03C335.115 32.51 334.295 32.25 333.255 32.25H329.565C329.345 32.25 329.195 32.29 329.115 32.37C329.035 32.43 328.995 32.55 328.995 32.73V37.59C328.995 37.77 329.025 37.9 329.085 37.98C329.145 38.06 329.255 38.1 329.415 38.1H333.105Z" fill="white"/>
</svg>
