<svg width="300" height="80" viewBox="0 0 300 80" fill="none" xmlns="http://www.w3.org/2000/svg">
<rect width="300" height="80" fill="#E5A650"/>
<path d="M128.28 28.74C128.54 28.74 128.67 28.89 128.67 29.19V50.52C128.67 50.66 128.61 50.78 128.49 50.88C128.39 50.96 128.26 51 128.1 51H125.07C124.89 51 124.75 50.98 124.65 50.94C124.55 50.9 124.44 50.8 124.32 50.64L114.75 37.2C114.67 37.1 114.59 37.06 114.51 37.08C114.45 37.1 114.42 37.16 114.42 37.26V50.46V50.55C114.42 50.71 114.37 50.83 114.27 50.91C114.19 50.97 114.04 51 113.82 51H110.7C110.3 51 110.1 50.83 110.1 50.49V29.31C110.1 28.93 110.28 28.74 110.64 28.74H114.27C114.51 28.74 114.68 28.77 114.78 28.83C114.88 28.87 115 28.99 115.14 29.19L123.96 41.76C124.08 41.92 124.18 42 124.26 42C124.36 42 124.41 41.89 124.41 41.67V29.28C124.41 28.92 124.59 28.74 124.95 28.74H128.28ZM132.864 29.31C132.864 28.93 133.024 28.74 133.344 28.74H148.464C148.764 28.74 148.914 28.91 148.914 29.25L148.884 31.95C148.884 32.37 148.674 32.58 148.254 32.58H138.684C138.304 32.58 138.114 32.74 138.114 33.06V37.41C138.114 37.75 138.264 37.92 138.564 37.92H144.924C145.264 37.92 145.434 38.08 145.434 38.4V41.28C145.434 41.56 145.274 41.7 144.954 41.7H138.534C138.254 41.7 138.114 41.82 138.114 42.06V46.77C138.114 46.91 138.134 47.01 138.174 47.07C138.234 47.13 138.324 47.16 138.444 47.16H148.704C149.064 47.16 149.244 47.31 149.244 47.61V50.46C149.244 50.82 149.044 51 148.644 51H133.524C133.284 51 133.114 50.95 133.014 50.85C132.914 50.75 132.864 50.59 132.864 50.37V29.31ZM171.003 49.83C171.203 50.15 171.303 50.41 171.303 50.61C171.303 50.87 171.093 51 170.673 51H166.503C166.043 51 165.723 50.85 165.543 50.55L161.313 43.74C161.173 43.48 161.043 43.35 160.923 43.35C160.803 43.35 160.673 43.48 160.533 43.74L156.333 50.55C156.173 50.85 155.843 51 155.343 51H152.013C151.593 51 151.383 50.88 151.383 50.64C151.383 50.42 151.493 50.15 151.713 49.83L158.013 40.2C158.133 40.02 158.193 39.87 158.193 39.75C158.193 39.65 158.123 39.48 157.983 39.24L151.683 29.55C151.603 29.45 151.563 29.32 151.563 29.16C151.563 28.88 151.723 28.74 152.043 28.74H156.423C156.663 28.74 156.853 28.78 156.993 28.86C157.133 28.94 157.253 29.06 157.353 29.22L161.073 35.31C161.173 35.47 161.273 35.55 161.373 35.55C161.493 35.55 161.603 35.47 161.703 35.31L165.423 29.22C165.523 29.04 165.633 28.92 165.753 28.86C165.893 28.78 166.083 28.74 166.323 28.74H169.983C170.283 28.74 170.433 28.85 170.433 29.07C170.433 29.19 170.383 29.33 170.283 29.49L164.223 38.67C164.123 38.87 164.073 39.02 164.073 39.12C164.073 39.22 164.133 39.38 164.253 39.6L171.003 49.83ZM173.238 29.28C173.238 29.12 173.288 28.99 173.388 28.89C173.508 28.79 173.658 28.74 173.838 28.74H191.058C191.458 28.74 191.658 28.92 191.658 29.28V32.07C191.658 32.37 191.478 32.52 191.118 32.52H185.508C185.288 32.52 185.178 32.62 185.178 32.82V50.43C185.178 50.81 185.008 51 184.668 51H180.378C180.078 51 179.928 50.83 179.928 50.49V32.91C179.928 32.77 179.898 32.67 179.838 32.61C179.798 32.55 179.718 32.52 179.598 32.52H173.808C173.428 32.52 173.238 32.37 173.238 32.07V29.28Z" fill="white"/>
<path d="M251.875 29.5L263.125 40.75L251.875 52" stroke="white" stroke-width="3" stroke-linecap="round" stroke-linejoin="round"/>
<path d="M261.875 29.5L273.125 40.75L261.875 52" stroke="white" stroke-width="3" stroke-linecap="round" stroke-linejoin="round"/>
</svg>
