<svg width="300" height="80" viewBox="0 0 300 80" fill="none" xmlns="http://www.w3.org/2000/svg">
<rect x="1.5" y="1.5" width="297" height="77" stroke="#E5A650" stroke-width="3"/>
<path d="M108.16 50.19C108.2 50.31 108.22 50.4 108.22 50.46C108.22 50.62 108.17 50.75 108.07 50.85C107.97 50.95 107.85 51 107.71 51H103.3C102.96 51 102.74 50.82 102.64 50.46L99.4 42.06C99.34 41.9 99.25 41.79 99.13 41.73C99.01 41.67 98.82 41.64 98.56 41.64H95.71C95.59 41.64 95.5 41.68 95.44 41.76C95.38 41.82 95.35 41.89 95.35 41.97V50.28C95.35 50.54 95.28 50.73 95.14 50.85C95.02 50.95 94.82 51 94.54 51H90.73C90.49 51 90.32 50.95 90.22 50.85C90.14 50.75 90.1 50.6 90.1 50.4V29.31C90.1 28.93 90.26 28.74 90.58 28.74H99.94C102.64 28.74 104.73 29.27 106.21 30.33C107.69 31.39 108.43 32.9 108.43 34.86C108.43 36.32 108.04 37.57 107.26 38.61C106.48 39.63 105.5 40.35 104.32 40.77C104.16 40.83 104.12 40.98 104.2 41.22L108.16 50.19ZM99.46 38.1C100.62 38.1 101.5 37.86 102.1 37.38C102.7 36.88 103 36.16 103 35.22C103 34.26 102.69 33.53 102.07 33.03C101.47 32.51 100.65 32.25 99.61 32.25H95.92C95.7 32.25 95.55 32.29 95.47 32.37C95.39 32.43 95.35 32.55 95.35 32.73V37.59C95.35 37.77 95.38 37.9 95.44 37.98C95.5 38.06 95.61 38.1 95.77 38.1H99.46ZM111.75 29.31C111.75 28.93 111.91 28.74 112.23 28.74H127.35C127.65 28.74 127.8 28.91 127.8 29.25L127.77 31.95C127.77 32.37 127.56 32.58 127.14 32.58H117.57C117.19 32.58 117 32.74 117 33.06V37.41C117 37.75 117.15 37.92 117.45 37.92H123.81C124.15 37.92 124.32 38.08 124.32 38.4V41.28C124.32 41.56 124.16 41.7 123.84 41.7H117.42C117.14 41.7 117 41.82 117 42.06V46.77C117 46.91 117.02 47.01 117.06 47.07C117.12 47.13 117.21 47.16 117.33 47.16H127.59C127.95 47.16 128.13 47.31 128.13 47.61V50.46C128.13 50.82 127.93 51 127.53 51H112.41C112.17 51 112 50.95 111.9 50.85C111.8 50.75 111.75 50.59 111.75 50.37V29.31ZM149.829 28.74C150.029 28.74 150.169 28.81 150.249 28.95C150.349 29.09 150.359 29.25 150.279 29.43L143.079 50.37C142.939 50.79 142.629 51 142.149 51H138.399C137.919 51 137.599 50.79 137.439 50.37L130.299 29.46L130.239 29.22C130.239 29.08 130.289 28.97 130.389 28.89C130.489 28.79 130.619 28.74 130.779 28.74H135.099C135.419 28.74 135.629 28.91 135.729 29.25L140.649 44.43C140.669 44.57 140.719 44.64 140.799 44.64C140.879 44.64 140.949 44.56 141.009 44.4L145.779 29.25C145.879 28.91 146.099 28.74 146.439 28.74H149.829ZM158.151 28.74C158.471 28.74 158.631 28.92 158.631 29.28V50.28C158.631 50.54 158.571 50.73 158.451 50.85C158.331 50.95 158.121 51 157.821 51H154.041C153.801 51 153.631 50.95 153.531 50.85C153.431 50.75 153.381 50.59 153.381 50.37V29.31C153.381 28.93 153.541 28.74 153.861 28.74H158.151ZM162.844 29.31C162.844 28.93 163.004 28.74 163.324 28.74H178.444C178.744 28.74 178.894 28.91 178.894 29.25L178.864 31.95C178.864 32.37 178.654 32.58 178.234 32.58H168.664C168.284 32.58 168.094 32.74 168.094 33.06V37.41C168.094 37.75 168.244 37.92 168.544 37.92H174.904C175.244 37.92 175.414 38.08 175.414 38.4V41.28C175.414 41.56 175.254 41.7 174.934 41.7H168.514C168.234 41.7 168.094 41.82 168.094 42.06V46.77C168.094 46.91 168.114 47.01 168.154 47.07C168.214 47.13 168.304 47.16 168.424 47.16H178.684C179.044 47.16 179.224 47.31 179.224 47.61V50.46C179.224 50.82 179.024 51 178.624 51H163.504C163.264 51 163.094 50.95 162.994 50.85C162.894 50.75 162.844 50.59 162.844 50.37V29.31ZM211.153 28.74C211.633 28.74 211.873 28.95 211.873 29.37C211.873 29.51 211.863 29.61 211.843 29.67L205.723 50.37C205.643 50.59 205.533 50.75 205.393 50.85C205.253 50.95 205.063 51 204.823 51H201.583C201.083 51 200.773 50.79 200.653 50.37L196.873 37.26C196.833 37.06 196.783 36.96 196.723 36.96C196.683 36.96 196.613 37.08 196.513 37.32L192.703 50.37C192.643 50.59 192.543 50.75 192.403 50.85C192.263 50.95 192.063 51 191.803 51H188.473C188.213 51 188.013 50.95 187.873 50.85C187.733 50.75 187.623 50.59 187.543 50.37L181.423 29.67C181.403 29.61 181.393 29.51 181.393 29.37C181.393 28.95 181.643 28.74 182.143 28.74H185.893C186.133 28.74 186.313 28.78 186.433 28.86C186.553 28.94 186.633 29.07 186.673 29.25L190.543 42.9C190.603 43.14 190.663 43.26 190.723 43.26C190.783 43.26 190.843 43.17 190.903 42.99L194.773 29.25C194.833 28.91 195.093 28.74 195.553 28.74H198.763C199.023 28.74 199.203 28.78 199.303 28.86C199.423 28.94 199.513 29.07 199.573 29.25L203.503 43.11C203.543 43.25 203.603 43.33 203.683 43.35C203.763 43.35 203.813 43.28 203.833 43.14L207.643 29.25C207.743 28.91 208.013 28.74 208.453 28.74H211.153Z" fill="white"/>
</svg>
