<svg width="100" height="140" viewBox="0 0 100 140" fill="none" xmlns="http://www.w3.org/2000/svg">
<path d="M50 10C70.9868 10 88 27.0132 88 48C88 68.9868 70.9868 86 50 86C29.0132 86 12 68.9868 12 48C12 27.0132 29.0132 10 50 10Z" stroke="#FF0000" stroke-width="4"/>
<path d="M19.3001 99.128C21.0601 99.128 22.2495 99.1333 22.8681 99.144C24.9801 99.208 26.5535 99.7467 27.5881 100.76C28.6228 101.773 29.1401 103.192 29.1401 105.016C29.1401 106.893 28.6015 108.36 27.5241 109.416C26.4468 110.472 24.8681 111 22.7881 111H19.3161C19.1881 111 19.0921 110.973 19.0281 110.92C18.9748 110.856 18.9481 110.755 18.9481 110.616V99.448C18.9481 99.3307 18.9748 99.2507 19.0281 99.208C19.0815 99.1547 19.1721 99.128 19.3001 99.128ZM21.8921 101.112C21.7961 101.112 21.7481 101.187 21.7481 101.336V108.808C21.7481 108.893 21.7588 108.952 21.7801 108.984C21.8121 109.016 21.8708 109.032 21.9561 109.032H22.2601C23.6041 109.032 24.5961 108.723 25.2361 108.104C25.8868 107.475 26.2121 106.44 26.2121 105C26.2121 103.667 25.9401 102.707 25.3961 102.12C24.8521 101.533 24.0095 101.208 22.8681 101.144L21.8921 101.112Z" fill="#FF0000"/>
<path d="M30.9637 99.432C30.9637 99.2293 31.0491 99.128 31.2197 99.128H39.2837C39.4437 99.128 39.5238 99.2187 39.5238 99.4L39.5077 100.84C39.5077 101.064 39.3957 101.176 39.1717 101.176H34.0677C33.8651 101.176 33.7637 101.261 33.7637 101.432V103.752C33.7637 103.933 33.8437 104.024 34.0037 104.024H37.3957C37.5771 104.024 37.6677 104.109 37.6677 104.28V105.816C37.6677 105.965 37.5824 106.04 37.4118 106.04H33.9877C33.8384 106.04 33.7637 106.104 33.7637 106.232V108.744C33.7637 108.819 33.7744 108.872 33.7957 108.904C33.8277 108.936 33.8757 108.952 33.9397 108.952H39.4118C39.6038 108.952 39.6997 109.032 39.6997 109.192V110.712C39.6997 110.904 39.5931 111 39.3797 111H31.3157C31.1877 111 31.0971 110.973 31.0437 110.92C30.9904 110.867 30.9637 110.781 30.9637 110.664V99.432Z" fill="#FF0000"/>
<path d="M41.4325 99.432C41.4325 99.2293 41.5178 99.128 41.6885 99.128H43.9765C44.1472 99.128 44.2325 99.224 44.2325 99.416V108.744C44.2325 108.819 44.2432 108.872 44.2645 108.904C44.2965 108.936 44.3445 108.952 44.4085 108.952H49.5125C49.7045 108.952 49.8005 109.032 49.8005 109.192V110.712C49.8005 110.797 49.7738 110.867 49.7205 110.92C49.6672 110.973 49.5925 111 49.4965 111H41.7845C41.6565 111 41.5658 110.973 41.5125 110.92C41.4592 110.867 41.4325 110.781 41.4325 110.664V99.432Z" fill="#FF0000"/>
<path d="M51.4637 99.432C51.4637 99.2293 51.5491 99.128 51.7197 99.128H59.7837C59.9437 99.128 60.0238 99.2187 60.0238 99.4L60.0077 100.84C60.0077 101.064 59.8957 101.176 59.6717 101.176H54.5677C54.3651 101.176 54.2637 101.261 54.2637 101.432V103.752C54.2637 103.933 54.3437 104.024 54.5037 104.024H57.8957C58.0771 104.024 58.1677 104.109 58.1677 104.28V105.816C58.1677 105.965 58.0824 106.04 57.9118 106.04H54.4877C54.3384 106.04 54.2637 106.104 54.2637 106.232V108.744C54.2637 108.819 54.2744 108.872 54.2957 108.904C54.3277 108.936 54.3758 108.952 54.4398 108.952H59.9118C60.1038 108.952 60.1997 109.032 60.1997 109.192V110.712C60.1997 110.904 60.0931 111 59.8797 111H51.8158C51.6878 111 51.5971 110.973 51.5438 110.92C51.4904 110.867 51.4637 110.781 51.4637 110.664V99.432Z" fill="#FF0000"/>
<path d="M61.3405 99.416C61.3405 99.3307 61.3672 99.2613 61.4205 99.208C61.4845 99.1547 61.5645 99.128 61.6605 99.128H70.8445C71.0578 99.128 71.1645 99.224 71.1645 99.416V100.904C71.1645 101.064 71.0685 101.144 70.8765 101.144H67.8845C67.7672 101.144 67.7085 101.197 67.7085 101.304V110.696C67.7085 110.899 67.6178 111 67.4365 111H65.1485C64.9885 111 64.9085 110.909 64.9085 110.728V101.352C64.9085 101.277 64.8925 101.224 64.8605 101.192C64.8392 101.16 64.7965 101.144 64.7325 101.144H61.6445C61.4418 101.144 61.3405 101.064 61.3405 100.904V99.416Z" fill="#FF0000"/>
<path d="M72.8231 99.432C72.8231 99.2293 72.9085 99.128 73.0791 99.128H81.1431C81.3031 99.128 81.3831 99.2187 81.3831 99.4L81.3671 100.84C81.3671 101.064 81.2551 101.176 81.0311 101.176H75.9271C75.7245 101.176 75.6231 101.261 75.6231 101.432V103.752C75.6231 103.933 75.7031 104.024 75.8631 104.024H79.2551C79.4365 104.024 79.5271 104.109 79.5271 104.28V105.816C79.5271 105.965 79.4418 106.04 79.2711 106.04H75.8471C75.6978 106.04 75.6231 106.104 75.6231 106.232V108.744C75.6231 108.819 75.6338 108.872 75.6551 108.904C75.6871 108.936 75.7351 108.952 75.7991 108.952H81.2711C81.4631 108.952 81.5591 109.032 81.5591 109.192V110.712C81.5591 110.904 81.4525 111 81.2391 111H73.1751C73.0471 111 72.9565 110.973 72.9031 110.92C72.8498 110.867 72.8231 110.781 72.8231 110.664V99.432Z" fill="#FF0000"/>
<path d="M11.7911 129.568C11.8124 129.632 11.8231 129.68 11.8231 129.712C11.8231 129.797 11.7964 129.867 11.7431 129.92C11.6897 129.973 11.6257 130 11.5511 130H9.19906C9.01773 130 8.9004 129.904 8.84706 129.712L7.11906 125.232C7.08706 125.147 7.03906 125.088 6.97506 125.056C6.91106 125.024 6.80973 125.008 6.67106 125.008H5.15106C5.08706 125.008 5.03906 125.029 5.00706 125.072C4.97506 125.104 4.95906 125.141 4.95906 125.184V129.616C4.95906 129.755 4.92173 129.856 4.84706 129.92C4.78306 129.973 4.67639 130 4.52706 130H2.49506C2.36706 130 2.27639 129.973 2.22306 129.92C2.18039 129.867 2.15906 129.787 2.15906 129.68V118.432C2.15906 118.229 2.24439 118.128 2.41506 118.128H7.40706C8.84706 118.128 9.96173 118.411 10.7511 118.976C11.5404 119.541 11.9351 120.347 11.9351 121.392C11.9351 122.171 11.7271 122.837 11.3111 123.392C10.8951 123.936 10.3724 124.32 9.74306 124.544C9.65773 124.576 9.6364 124.656 9.67906 124.784L11.7911 129.568ZM7.15106 123.12C7.76973 123.12 8.23906 122.992 8.55906 122.736C8.87906 122.469 9.03906 122.085 9.03906 121.584C9.03906 121.072 8.87373 120.683 8.54306 120.416C8.22306 120.139 7.78573 120 7.23106 120H5.26306C5.14573 120 5.06573 120.021 5.02306 120.064C4.9804 120.096 4.95906 120.16 4.95906 120.256V122.848C4.95906 122.944 4.97506 123.013 5.00706 123.056C5.03906 123.099 5.09773 123.12 5.18306 123.12H7.15106Z" fill="#FF0000"/>
<path d="M13.7059 118.432C13.7059 118.229 13.7913 118.128 13.9619 118.128H22.0259C22.1859 118.128 22.2659 118.219 22.2659 118.4L22.2499 119.84C22.2499 120.064 22.1379 120.176 21.9139 120.176H16.8099C16.6073 120.176 16.5059 120.261 16.5059 120.432V122.752C16.5059 122.933 16.5859 123.024 16.7459 123.024H20.1379C20.3193 123.024 20.4099 123.109 20.4099 123.28V124.816C20.4099 124.965 20.3246 125.04 20.1539 125.04H16.7299C16.5806 125.04 16.5059 125.104 16.5059 125.232V127.744C16.5059 127.819 16.5166 127.872 16.5379 127.904C16.5699 127.936 16.6179 127.952 16.6819 127.952H22.1539C22.3459 127.952 22.4419 128.032 22.4419 128.192V129.712C22.4419 129.904 22.3353 130 22.1219 130H14.0579C13.9299 130 13.8393 129.973 13.7859 129.92C13.7326 129.867 13.7059 129.781 13.7059 129.664V118.432Z" fill="#FF0000"/>
<path d="M28.3073 117.968C29.118 117.968 29.8646 118.123 30.5473 118.432C31.23 118.741 31.79 119.163 32.2273 119.696C32.6753 120.229 32.958 120.827 33.0753 121.488C33.0966 121.563 33.1073 121.648 33.1073 121.744C33.1073 121.808 33.0913 121.851 33.0593 121.872C33.0273 121.893 32.9793 121.909 32.9153 121.92L30.7553 122.064C30.6593 122.064 30.5953 122.048 30.5633 122.016C30.542 121.984 30.5206 121.92 30.4993 121.824C30.382 121.237 30.1473 120.773 29.7953 120.432C29.4433 120.091 28.974 119.92 28.3873 119.92C26.6806 119.92 25.8273 121.285 25.8273 124.016C25.8273 125.435 26.0406 126.469 26.4673 127.12C26.894 127.771 27.5446 128.096 28.4193 128.096C29.0593 128.096 29.598 127.936 30.0353 127.616C30.4833 127.296 30.846 126.773 31.1233 126.048C31.1553 125.973 31.2246 125.936 31.3313 125.936C31.3953 125.936 31.4433 125.941 31.4753 125.952L33.0433 126.288C33.1926 126.341 33.2513 126.475 33.2193 126.688C33.1126 127.147 32.862 127.643 32.4673 128.176C32.0833 128.709 31.5393 129.173 30.8353 129.568C30.1313 129.963 29.2886 130.16 28.3073 130.16C27.2086 130.16 26.2486 129.904 25.4273 129.392C24.6166 128.869 23.9926 128.144 23.5553 127.216C23.118 126.277 22.8993 125.195 22.8993 123.968C22.8993 122.752 23.118 121.691 23.5553 120.784C23.9926 119.877 24.6166 119.184 25.4273 118.704C26.2486 118.213 27.2086 117.968 28.3073 117.968Z" fill="#FF0000"/>
<path d="M39.9971 130.16C38.8771 130.16 37.9011 129.92 37.0691 129.44C36.2477 128.949 35.6131 128.251 35.1651 127.344C34.7277 126.437 34.5091 125.36 34.5091 124.112C34.5091 122.853 34.7331 121.765 35.1811 120.848C35.6291 119.92 36.2637 119.211 37.0851 118.72C37.9171 118.219 38.8877 117.968 39.9971 117.968C41.0957 117.968 42.0557 118.219 42.8771 118.72C43.6984 119.211 44.3331 119.92 44.7811 120.848C45.2291 121.765 45.4531 122.848 45.4531 124.096C45.4531 125.333 45.2291 126.411 44.7811 127.328C44.3437 128.235 43.7144 128.933 42.8931 129.424C42.0717 129.915 41.1064 130.16 39.9971 130.16ZM39.9971 128.192C40.8824 128.192 41.5224 127.872 41.9171 127.232C42.3224 126.592 42.5251 125.557 42.5251 124.128C42.5251 122.667 42.3171 121.6 41.9011 120.928C41.4957 120.256 40.8611 119.92 39.9971 119.92C39.1117 119.92 38.4611 120.256 38.0451 120.928C37.6397 121.6 37.4371 122.667 37.4371 124.128C37.4371 125.557 37.6397 126.592 38.0451 127.232C38.4504 127.872 39.1011 128.192 39.9971 128.192Z" fill="#FF0000"/>
<path d="M56.9317 129.568C56.953 129.632 56.9637 129.68 56.9637 129.712C56.9637 129.797 56.937 129.867 56.8837 129.92C56.8304 129.973 56.7664 130 56.6917 130H54.3397C54.1584 130 54.041 129.904 53.9877 129.712L52.2597 125.232C52.2277 125.147 52.1797 125.088 52.1157 125.056C52.0517 125.024 51.9504 125.008 51.8117 125.008H50.2917C50.2277 125.008 50.1797 125.029 50.1477 125.072C50.1157 125.104 50.0997 125.141 50.0997 125.184V129.616C50.0997 129.755 50.0624 129.856 49.9877 129.92C49.9237 129.973 49.817 130 49.6677 130H47.6357C47.5077 130 47.417 129.973 47.3637 129.92C47.321 129.867 47.2997 129.787 47.2997 129.68V118.432C47.2997 118.229 47.385 118.128 47.5557 118.128H52.5477C53.9877 118.128 55.1024 118.411 55.8917 118.976C56.681 119.541 57.0757 120.347 57.0757 121.392C57.0757 122.171 56.8677 122.837 56.4517 123.392C56.0357 123.936 55.513 124.32 54.8837 124.544C54.7984 124.576 54.777 124.656 54.8197 124.784L56.9317 129.568ZM52.2917 123.12C52.9104 123.12 53.3797 122.992 53.6997 122.736C54.0197 122.469 54.1797 122.085 54.1797 121.584C54.1797 121.072 54.0144 120.683 53.6837 120.416C53.3637 120.139 52.9264 120 52.3717 120H50.4037C50.2864 120 50.2064 120.021 50.1637 120.064C50.121 120.096 50.0997 120.16 50.0997 120.256V122.848C50.0997 122.944 50.1157 123.013 50.1477 123.056C50.1797 123.099 50.2384 123.12 50.3237 123.12H52.2917Z" fill="#FF0000"/>
<path d="M59.1986 118.128C60.9586 118.128 62.1479 118.133 62.7666 118.144C64.8786 118.208 66.4519 118.747 67.4866 119.76C68.5212 120.773 69.0386 122.192 69.0386 124.016C69.0386 125.893 68.4999 127.36 67.4226 128.416C66.3452 129.472 64.7666 130 62.6866 130H59.2146C59.0866 130 58.9906 129.973 58.9266 129.92C58.8732 129.856 58.8466 129.755 58.8466 129.616V118.448C58.8466 118.331 58.8732 118.251 58.9266 118.208C58.9799 118.155 59.0706 118.128 59.1986 118.128ZM61.7906 120.112C61.6946 120.112 61.6466 120.187 61.6466 120.336V127.808C61.6466 127.893 61.6572 127.952 61.6786 127.984C61.7106 128.016 61.7692 128.032 61.8546 128.032H62.1586C63.5026 128.032 64.4946 127.723 65.1346 127.104C65.7852 126.475 66.1106 125.44 66.1106 124C66.1106 122.667 65.8386 121.707 65.2946 121.12C64.7506 120.533 63.9079 120.208 62.7666 120.144L61.7906 120.112Z" fill="#FF0000"/>
<path d="M73.4062 118.128C73.5769 118.128 73.6622 118.224 73.6622 118.416V129.616C73.6622 129.755 73.6302 129.856 73.5662 129.92C73.5022 129.973 73.3902 130 73.2302 130H71.2142C71.0862 130 70.9955 129.973 70.9422 129.92C70.8889 129.867 70.8622 129.781 70.8622 129.664V118.432C70.8622 118.229 70.9475 118.128 71.1182 118.128H73.4062Z" fill="#FF0000"/>
<path d="M85.6051 118.128C85.7437 118.128 85.8131 118.208 85.8131 118.368V129.744C85.8131 129.819 85.7811 129.883 85.7171 129.936C85.6637 129.979 85.5944 130 85.5091 130H83.8931C83.7971 130 83.7224 129.989 83.6691 129.968C83.6157 129.947 83.5571 129.893 83.4931 129.808L78.3891 122.64C78.3464 122.587 78.3037 122.565 78.2611 122.576C78.2291 122.587 78.2131 122.619 78.2131 122.672V129.76C78.2131 129.845 78.1864 129.909 78.1331 129.952C78.0904 129.984 78.0104 130 77.8931 130H76.2291C76.0157 130 75.9091 129.909 75.9091 129.728V118.432C75.9091 118.229 76.0051 118.128 76.1971 118.128H78.1331C78.2611 118.128 78.3517 118.144 78.4051 118.176C78.4584 118.197 78.5224 118.261 78.5971 118.368L83.3011 125.072C83.3651 125.157 83.4184 125.2 83.4611 125.2C83.5144 125.2 83.5411 125.141 83.5411 125.024V118.416C83.5411 118.224 83.6371 118.128 83.8291 118.128H85.6051Z" fill="#FF0000"/>
<path d="M92.9777 130.16C91.9004 130.16 90.9564 129.909 90.1457 129.408C89.3457 128.907 88.727 128.203 88.2897 127.296C87.8524 126.379 87.6337 125.317 87.6337 124.112C87.6337 122.875 87.863 121.792 88.3217 120.864C88.7804 119.936 89.4257 119.221 90.2577 118.72C91.0897 118.219 92.0497 117.968 93.1377 117.968C93.9697 117.968 94.727 118.128 95.4097 118.448C96.103 118.768 96.663 119.189 97.0897 119.712C97.527 120.224 97.799 120.773 97.9057 121.36C97.927 121.424 97.9377 121.504 97.9377 121.6C97.9377 121.717 97.8684 121.781 97.7297 121.792L95.6177 122.112C95.5324 122.112 95.4737 122.096 95.4417 122.064C95.4097 122.021 95.383 121.952 95.3617 121.856C95.255 121.301 95.0044 120.843 94.6097 120.48C94.215 120.117 93.703 119.936 93.0737 119.936C92.2524 119.936 91.6284 120.261 91.2017 120.912C90.775 121.563 90.5617 122.597 90.5617 124.016C90.5617 125.499 90.7857 126.565 91.2337 127.216C91.6817 127.867 92.327 128.192 93.1697 128.192C93.8097 128.192 94.3217 128.021 94.7057 127.68C95.0897 127.328 95.3403 126.891 95.4577 126.368L95.4897 125.904C95.5004 125.883 95.5057 125.851 95.5057 125.808C95.5057 125.712 95.447 125.664 95.3297 125.664H93.3937C93.3084 125.664 93.2444 125.643 93.2017 125.6C93.159 125.557 93.1377 125.488 93.1377 125.392V124.192C93.1377 124.043 93.223 123.968 93.3937 123.968L97.6657 123.984C97.815 123.984 97.927 124.021 98.0017 124.096C98.087 124.16 98.1297 124.251 98.1297 124.368V129.76C98.1297 129.835 98.1084 129.893 98.0657 129.936C98.023 129.979 97.9644 130 97.8897 130H97.3777C97.1964 130 97.0577 129.915 96.9617 129.744L96.4977 128.592C96.4657 128.517 96.4124 128.523 96.3377 128.608C95.9644 129.067 95.5164 129.44 94.9937 129.728C94.4817 130.016 93.8097 130.16 92.9777 130.16Z" fill="#FF0000"/>
<path d="M53.6343 45.865L50 49.5161L46.3486 45.865L43.9314 48.2933L47.5829 51.9444L43.9486 55.5956L46.3657 58.0239L50 54.3728L53.6343 58.0239L56.0514 55.5956L52.4171 51.9444L56.0514 48.2933L53.6343 45.865ZM56 34.7222L54.2857 33H45.7143L44 34.7222H38V38.1667H62V34.7222H56ZM39.7143 60.5556C39.7143 62.45 41.2571 64 43.1429 64H56.8571C58.7429 64 60.2857 62.45 60.2857 60.5556V39.8889H39.7143V60.5556ZM43.1429 43.3333H56.8571V60.5556H43.1429V43.3333Z" fill="#FF0000"/>
</svg>
