<svg width="100" height="140" viewBox="0 0 100 140" fill="none" xmlns="http://www.w3.org/2000/svg">
<g clip-path="url(#clip0)">
<path d="M20.2258 93.986C20.2258 93.758 20.3218 93.644 20.5138 93.644H29.4418C29.6218 93.644 29.7118 93.746 29.7118 93.95L29.6938 95.57C29.6938 95.822 29.5738 95.948 29.3338 95.948H23.7178C23.5978 95.948 23.5078 95.972 23.4478 96.02C23.3998 96.068 23.3758 96.14 23.3758 96.236V99.026C23.3758 99.218 23.4658 99.314 23.6458 99.314H27.5518C27.7438 99.314 27.8398 99.41 27.8398 99.602V101.312C27.8398 101.48 27.7498 101.564 27.5698 101.564H23.6278C23.4598 101.564 23.3758 101.642 23.3758 101.798V106.586C23.3758 106.742 23.3398 106.85 23.2678 106.91C23.1958 106.97 23.0758 107 22.9078 107H20.6218C20.4778 107 20.3758 106.97 20.3158 106.91C20.2558 106.85 20.2258 106.754 20.2258 106.622V93.986ZM34.4433 93.644C34.6353 93.644 34.7313 93.752 34.7313 93.968V106.568C34.7313 106.724 34.6953 106.838 34.6233 106.91C34.5513 106.97 34.4253 107 34.2453 107H31.9773C31.8333 107 31.7313 106.97 31.6713 106.91C31.6113 106.85 31.5813 106.754 31.5813 106.622V93.986C31.5813 93.758 31.6773 93.644 31.8693 93.644H34.4433ZM48.167 93.644C48.323 93.644 48.401 93.734 48.401 93.914V106.712C48.401 106.796 48.365 106.868 48.293 106.928C48.233 106.976 48.155 107 48.059 107H46.241C46.133 107 46.049 106.988 45.989 106.964C45.929 106.94 45.863 106.88 45.791 106.784L40.049 98.72C40.001 98.66 39.953 98.636 39.905 98.648C39.869 98.66 39.851 98.696 39.851 98.756V106.676V106.73C39.851 106.826 39.821 106.898 39.761 106.946C39.713 106.982 39.623 107 39.491 107H37.619C37.379 107 37.259 106.898 37.259 106.694V93.986C37.259 93.758 37.367 93.644 37.583 93.644H39.761C39.905 93.644 40.007 93.662 40.067 93.698C40.127 93.722 40.199 93.794 40.283 93.914L45.575 101.456C45.647 101.552 45.707 101.6 45.755 101.6C45.815 101.6 45.845 101.534 45.845 101.402V93.968C45.845 93.752 45.953 93.644 46.169 93.644H48.167ZM53.7792 93.644C53.9712 93.644 54.0672 93.752 54.0672 93.968V106.568C54.0672 106.724 54.0312 106.838 53.9592 106.91C53.8872 106.97 53.7612 107 53.5812 107H51.3132C51.1692 107 51.0672 106.97 51.0072 106.91C50.9472 106.85 50.9172 106.754 50.9172 106.622V93.986C50.9172 93.758 51.0132 93.644 51.2052 93.644H53.7792ZM64.263 96.794C63.951 96.446 63.591 96.176 63.183 95.984C62.787 95.78 62.265 95.678 61.617 95.678C60.885 95.678 60.327 95.81 59.943 96.074C59.559 96.338 59.367 96.686 59.367 97.118C59.367 97.742 59.853 98.198 60.825 98.486L63.669 99.296C64.737 99.596 65.529 100.07 66.045 100.718C66.573 101.366 66.837 102.146 66.837 103.058C66.837 103.898 66.621 104.63 66.189 105.254C65.757 105.866 65.133 106.34 64.317 106.676C63.513 107.012 62.565 107.18 61.473 107.18C60.249 107.18 59.145 106.976 58.161 106.568C57.177 106.148 56.457 105.578 56.001 104.858C55.953 104.774 55.929 104.696 55.929 104.624C55.929 104.528 55.989 104.426 56.109 104.318L57.495 103.364C57.615 103.292 57.723 103.256 57.819 103.256C57.927 103.256 58.017 103.304 58.089 103.4C58.533 103.976 58.983 104.384 59.439 104.624C59.895 104.864 60.501 104.984 61.257 104.984C62.061 104.984 62.691 104.858 63.147 104.606C63.603 104.354 63.831 103.976 63.831 103.472C63.831 103.148 63.717 102.872 63.489 102.644C63.261 102.416 62.877 102.218 62.337 102.05L59.619 101.276C58.587 100.988 57.789 100.508 57.225 99.836C56.661 99.152 56.379 98.378 56.379 97.514C56.379 96.746 56.589 96.056 57.009 95.444C57.441 94.832 58.047 94.352 58.827 94.004C59.607 93.644 60.507 93.464 61.527 93.464C62.535 93.464 63.459 93.638 64.299 93.986C65.139 94.322 65.781 94.778 66.225 95.354C66.297 95.45 66.333 95.534 66.333 95.606C66.333 95.678 66.297 95.744 66.225 95.804L64.713 96.92C64.641 96.968 64.587 96.992 64.551 96.992C64.491 96.992 64.395 96.926 64.263 96.794ZM72.1606 101.294C72.0886 101.294 72.0286 101.318 71.9806 101.366C71.9446 101.414 71.9266 101.468 71.9266 101.528V106.586C71.9266 106.73 71.8846 106.838 71.8006 106.91C71.7286 106.97 71.6086 107 71.4406 107H69.1726C69.0286 107 68.9266 106.97 68.8666 106.91C68.8066 106.85 68.7766 106.754 68.7766 106.622V93.986C68.7766 93.758 68.8726 93.644 69.0646 93.644H71.6386C71.8306 93.644 71.9266 93.752 71.9266 93.968V98.576C71.9266 98.78 72.0166 98.882 72.1966 98.882H76.3546C76.5466 98.882 76.6426 98.786 76.6426 98.594V93.968C76.6426 93.752 76.7326 93.644 76.9126 93.644H79.4866C79.6906 93.644 79.7926 93.758 79.7926 93.986V106.622C79.7926 106.874 79.6606 107 79.3966 107H77.1106C76.9426 107 76.8226 106.97 76.7506 106.91C76.6786 106.85 76.6426 106.742 76.6426 106.586V101.528C76.6426 101.456 76.6186 101.402 76.5706 101.366C76.5346 101.318 76.4746 101.294 76.3906 101.294H72.1606ZM10.4387 118.794C10.1267 118.446 9.76674 118.176 9.35874 117.984C8.96274 117.78 8.44074 117.678 7.79274 117.678C7.06074 117.678 6.50274 117.81 6.11874 118.074C5.73474 118.338 5.54274 118.686 5.54274 119.118C5.54274 119.742 6.02874 120.198 7.00074 120.486L9.84474 121.296C10.9127 121.596 11.7047 122.07 12.2207 122.718C12.7487 123.366 13.0127 124.146 13.0127 125.058C13.0127 125.898 12.7967 126.63 12.3647 127.254C11.9327 127.866 11.3087 128.34 10.4927 128.676C9.68874 129.012 8.74074 129.18 7.64874 129.18C6.42474 129.18 5.32074 128.976 4.33674 128.568C3.35274 128.148 2.63274 127.578 2.17674 126.858C2.12874 126.774 2.10474 126.696 2.10474 126.624C2.10474 126.528 2.16474 126.426 2.28474 126.318L3.67074 125.364C3.79074 125.292 3.89874 125.256 3.99474 125.256C4.10274 125.256 4.19274 125.304 4.26474 125.4C4.70874 125.976 5.15874 126.384 5.61474 126.624C6.07074 126.864 6.67674 126.984 7.43274 126.984C8.23674 126.984 8.86674 126.858 9.32274 126.606C9.77874 126.354 10.0067 125.976 10.0067 125.472C10.0067 125.148 9.89274 124.872 9.66474 124.644C9.43674 124.416 9.05274 124.218 8.51274 124.05L5.79474 123.276C4.76274 122.988 3.96474 122.508 3.40074 121.836C2.83674 121.152 2.55474 120.378 2.55474 119.514C2.55474 118.746 2.76474 118.056 3.18474 117.444C3.61674 116.832 4.22274 116.352 5.00274 116.004C5.78274 115.644 6.68274 115.464 7.70274 115.464C8.71074 115.464 9.63474 115.638 10.4747 115.986C11.3147 116.322 11.9567 116.778 12.4007 117.354C12.4727 117.45 12.5087 117.534 12.5087 117.606C12.5087 117.678 12.4727 117.744 12.4007 117.804L10.8887 118.92C10.8167 118.968 10.7627 118.992 10.7267 118.992C10.6667 118.992 10.5707 118.926 10.4387 118.794ZM25.8784 119.802C25.8784 121.098 25.4284 122.106 24.5284 122.826C23.6404 123.534 22.4644 123.888 21.0004 123.888H18.3004C18.1684 123.888 18.1024 123.954 18.1024 124.086V128.586C18.1024 128.862 17.9464 129 17.6344 129H15.3304C15.1864 129 15.0844 128.97 15.0244 128.91C14.9764 128.85 14.9524 128.76 14.9524 128.64V115.986C14.9524 115.758 15.0484 115.644 15.2404 115.644H20.6404C21.6364 115.644 22.5244 115.8 23.3044 116.112C24.0964 116.412 24.7204 116.874 25.1764 117.498C25.6444 118.122 25.8784 118.89 25.8784 119.802ZM22.6384 119.748C22.6384 119.136 22.4404 118.674 22.0444 118.362C21.6484 118.05 21.1144 117.894 20.4424 117.894H18.4444C18.3244 117.894 18.2344 117.918 18.1744 117.966C18.1264 118.014 18.1024 118.098 18.1024 118.218V121.296C18.1024 121.416 18.1204 121.506 18.1564 121.566C18.1924 121.614 18.2584 121.638 18.3544 121.638H20.5684C21.2044 121.638 21.7084 121.47 22.0804 121.134C22.4524 120.798 22.6384 120.336 22.6384 119.748ZM27.8196 115.986C27.8196 115.758 27.9156 115.644 28.1076 115.644H37.1796C37.3596 115.644 37.4496 115.746 37.4496 115.95L37.4316 117.57C37.4316 117.822 37.3056 117.948 37.0536 117.948H31.3116C31.0836 117.948 30.9696 118.044 30.9696 118.236V120.846C30.9696 121.05 31.0596 121.152 31.2396 121.152H35.0556C35.2596 121.152 35.3616 121.248 35.3616 121.44V123.168C35.3616 123.336 35.2656 123.42 35.0736 123.42H31.2216C31.0536 123.42 30.9696 123.492 30.9696 123.636V126.462C30.9696 126.546 30.9816 126.606 31.0056 126.642C31.0416 126.678 31.0956 126.696 31.1676 126.696H37.3236C37.5396 126.696 37.6476 126.786 37.6476 126.966V128.676C37.6476 128.892 37.5276 129 37.2876 129H28.2156C28.0716 129 27.9696 128.97 27.9096 128.91C27.8496 128.85 27.8196 128.754 27.8196 128.622V115.986ZM39.2009 129C39.0209 129 38.9309 128.898 38.9309 128.694C38.9309 128.598 38.9429 128.526 38.9669 128.478L43.4489 116.004C43.4969 115.872 43.5509 115.782 43.6109 115.734C43.6829 115.674 43.7849 115.644 43.9169 115.644H46.6169C46.7489 115.644 46.8629 115.68 46.9589 115.752C47.0549 115.824 47.1209 115.92 47.1569 116.04L51.6029 128.514C51.6269 128.586 51.6389 128.64 51.6389 128.676C51.6389 128.772 51.6149 128.85 51.5669 128.91C51.5309 128.97 51.4709 129 51.3869 129H48.7409C48.5609 129 48.4469 128.916 48.3989 128.748L47.4629 126.12C47.4389 126.048 47.4089 126 47.3729 125.976C47.3489 125.94 47.3009 125.922 47.2289 125.922H42.8369C42.7169 125.922 42.6389 125.982 42.6029 126.102L41.6489 128.766C41.5769 128.922 41.4509 129 41.2709 129H39.2009ZM46.4909 123.528C46.6109 123.528 46.6709 123.48 46.6709 123.384C46.6709 123.312 46.6649 123.258 46.6529 123.222L45.1409 119.01C45.1049 118.938 45.0629 118.902 45.0149 118.902C44.9789 118.902 44.9429 118.944 44.9069 119.028L43.3769 123.222C43.3529 123.294 43.3409 123.348 43.3409 123.384C43.3409 123.48 43.4069 123.528 43.5389 123.528H46.4909ZM65.0036 128.568C65.0396 128.64 65.0576 128.712 65.0576 128.784C65.0576 128.928 64.9736 129 64.8056 129H62.1056C61.8536 129 61.6796 128.904 61.5836 128.712L58.6856 123.06C58.6496 122.988 58.6076 122.952 58.5596 122.952C58.5116 122.952 58.4396 123.012 58.3436 123.132L56.7416 125.04C56.6696 125.124 56.6336 125.25 56.6336 125.418V128.586C56.6336 128.73 56.5916 128.838 56.5076 128.91C56.4356 128.97 56.3156 129 56.1476 129H53.8796C53.7356 129 53.6336 128.976 53.5736 128.928C53.5136 128.868 53.4836 128.772 53.4836 128.64V115.986C53.4836 115.758 53.5796 115.644 53.7716 115.644H56.3636C56.5436 115.644 56.6336 115.746 56.6336 115.95V121.332C56.6336 121.452 56.6576 121.512 56.7056 121.512C56.7416 121.512 56.7896 121.476 56.8496 121.404L61.2056 115.932C61.2776 115.824 61.3556 115.752 61.4396 115.716C61.5236 115.668 61.6496 115.644 61.8176 115.644H63.9596C64.0676 115.644 64.1516 115.668 64.2116 115.716C64.2836 115.764 64.3196 115.818 64.3196 115.878C64.3196 115.95 64.2956 116.01 64.2476 116.058L60.7916 120.108C60.7316 120.204 60.7016 120.276 60.7016 120.324C60.7016 120.372 60.7196 120.444 60.7556 120.54L65.0036 128.568ZM69.7402 115.644C69.9322 115.644 70.0282 115.752 70.0282 115.968V128.568C70.0282 128.724 69.9922 128.838 69.9202 128.91C69.8482 128.97 69.7222 129 69.5422 129H67.2742C67.1302 129 67.0282 128.97 66.9682 128.91C66.9082 128.85 66.8782 128.754 66.8782 128.622V115.986C66.8782 115.758 66.9742 115.644 67.1662 115.644H69.7402ZM83.4639 115.644C83.6199 115.644 83.6979 115.734 83.6979 115.914V128.712C83.6979 128.796 83.6619 128.868 83.5899 128.928C83.5299 128.976 83.4519 129 83.3559 129H81.5379C81.4299 129 81.3459 128.988 81.2859 128.964C81.2259 128.94 81.1599 128.88 81.0879 128.784L75.3459 120.72C75.2979 120.66 75.2499 120.636 75.2019 120.648C75.1659 120.66 75.1479 120.696 75.1479 120.756V128.676V128.73C75.1479 128.826 75.1179 128.898 75.0579 128.946C75.0099 128.982 74.9199 129 74.7879 129H72.9159C72.6759 129 72.5559 128.898 72.5559 128.694V115.986C72.5559 115.758 72.6639 115.644 72.8799 115.644H75.0579C75.2019 115.644 75.3039 115.662 75.3639 115.698C75.4239 115.722 75.4959 115.794 75.5799 115.914L80.8719 123.456C80.9439 123.552 81.0039 123.6 81.0519 123.6C81.1119 123.6 81.1419 123.534 81.1419 123.402V115.968C81.1419 115.752 81.2499 115.644 81.4659 115.644H83.4639ZM91.7581 129.18C90.5461 129.18 89.4841 128.898 88.5721 128.334C87.6721 127.77 86.9761 126.978 86.4841 125.958C85.9921 124.926 85.7461 123.732 85.7461 122.376C85.7461 120.984 86.0041 119.766 86.5201 118.722C87.0361 117.678 87.7621 116.874 88.6981 116.31C89.6341 115.746 90.7141 115.464 91.9381 115.464C92.8741 115.464 93.7261 115.644 94.4941 116.004C95.2741 116.364 95.9041 116.838 96.3841 117.426C96.8761 118.002 97.1821 118.62 97.3021 119.28C97.3261 119.352 97.3381 119.442 97.3381 119.55C97.3381 119.682 97.2601 119.754 97.1041 119.766L94.7281 120.126C94.6321 120.126 94.5661 120.108 94.5301 120.072C94.4941 120.024 94.4641 119.946 94.4401 119.838C94.3201 119.214 94.0381 118.698 93.5941 118.29C93.1501 117.882 92.5741 117.678 91.8661 117.678C90.9421 117.678 90.2401 118.044 89.7601 118.776C89.2801 119.508 89.0401 120.672 89.0401 122.268C89.0401 123.936 89.2921 125.136 89.7961 125.868C90.3001 126.6 91.0261 126.966 91.9741 126.966C92.6941 126.966 93.2701 126.774 93.7021 126.39C94.1341 125.994 94.4161 125.502 94.5481 124.914L94.5841 124.392C94.5961 124.368 94.6021 124.332 94.6021 124.284C94.6021 124.176 94.5361 124.122 94.4041 124.122H92.2261C92.1301 124.122 92.0581 124.098 92.0101 124.05C91.9621 124.002 91.9381 123.924 91.9381 123.816V122.466C91.9381 122.298 92.0341 122.214 92.2261 122.214L97.0321 122.232C97.2001 122.232 97.3261 122.274 97.4101 122.358C97.5061 122.43 97.5541 122.532 97.5541 122.664V128.73C97.5541 128.814 97.5301 128.88 97.4821 128.928C97.4341 128.976 97.3681 129 97.2841 129H96.7081C96.5041 129 96.3481 128.904 96.2401 128.712L95.7181 127.416C95.6821 127.332 95.6221 127.338 95.5381 127.434C95.1181 127.95 94.6141 128.37 94.0261 128.694C93.4501 129.018 92.6941 129.18 91.7581 129.18Z" fill="black"/>
<circle cx="50" cy="48" r="40" fill="black"/>
<path d="M43.125 56.88H42.755V57.25V59.6875V60.0575H43.125H56.875H57.245V59.6875V57.25V56.88H56.875H43.125Z" fill="white" stroke="white" stroke-width="0.74"/>
<path d="M45.875 61.755H45.505V62.125V64.5625V64.9325H45.875H54.125H54.495V64.5625V62.125V61.755H54.125H45.875Z" fill="white" stroke="white" stroke-width="0.74"/>
<path d="M43.1052 49.822L43.092 49.8111L43.0779 49.8016C41.8383 48.9636 40.855 47.8716 40.2101 46.6249C39.5654 45.3785 39.2776 44.0138 39.3692 42.6498L39.37 42.6377L39.3701 42.6255C39.3735 40.154 40.4824 37.7741 42.4713 36.0112C44.4617 34.247 47.1688 33.2481 50.0005 33.245L50.3701 33.2446V32.875V30.4375V30.0671L49.9997 30.0675C46.2696 30.0711 42.6859 31.3857 40.0363 33.7342C37.3879 36.0817 35.887 39.2739 35.8801 42.615C35.7852 44.4492 36.1827 46.2754 37.0374 47.943C37.8915 49.6093 39.1766 51.0678 40.7834 52.2017C41.481 52.7731 41.9744 53.1925 42.2993 53.5983C42.6111 53.9877 42.7551 54.3498 42.7551 54.8125V55.1825H43.1251H45.8751H46.2451V54.8125C46.2451 52.3948 44.5949 51.0426 43.1475 49.8566L43.1052 49.822Z" fill="white" stroke="white" stroke-width="0.74"/>
<path d="M52.1842 35.0356L51.9387 34.8181L51.6933 35.0356L49.7546 36.754L49.4422 37.0309L49.7546 37.3078L56.6296 43.4016L56.875 43.6191L57.1204 43.4016L69.4954 32.4328L69.8078 32.1559L69.4954 31.879L67.5567 30.1606L67.3113 29.9431L67.0658 30.1606L56.875 39.1934L52.1842 35.0356Z" fill="white" stroke="white" stroke-width="0.74"/>
<path d="M60.725 44.6925H60.437L60.3663 44.9717C59.883 46.8802 58.6658 48.5914 56.9091 49.8076L56.8967 49.8162L56.885 49.8258C56.871 49.8373 56.8571 49.8487 56.8431 49.8602C55.4008 51.0441 53.755 52.395 53.755 54.8125V55.1825H54.125H56.875H57.245V54.8125C57.245 54.3487 57.3887 53.9861 57.6993 53.5965C58.0232 53.1904 58.5149 52.7708 59.2105 52.1987C61.6871 50.4397 63.3592 47.9272 63.8934 45.132L63.9774 44.6925H63.53H60.725Z" fill="white" stroke="white" stroke-width="0.74"/>
</g>
<defs>
<clipPath id="clip0">
<rect width="100" height="140" fill="white"/>
</clipPath>
</defs>
</svg>
