<svg width="65" height="65" viewBox="0 0 65 65" fill="none" xmlns="http://www.w3.org/2000/svg">
<path d="M32.5 0C14.5509 0 0 14.5509 0 32.5C0 50.4491 14.5509 65 32.5 65C50.4491 65 65 50.4491 65 32.5C64.9796 14.5594 50.4406 0.0204032 32.5 0ZM53.1605 28.5537L49.6783 33.1965C49.6636 33.2164 49.6404 33.2232 49.6251 33.2407C49.544 33.3326 49.4488 33.4108 49.3434 33.4726C49.306 33.4998 49.2674 33.5247 49.2272 33.5468C49.0782 33.6193 48.9155 33.6579 48.75 33.6607C48.61 33.6579 48.4717 33.6301 48.3414 33.5785C48.2966 33.5581 48.2524 33.5349 48.2104 33.51C48.1566 33.4867 48.1045 33.4595 48.0546 33.4283L43.4117 29.9462C42.8988 29.5619 42.7951 28.8342 43.1799 28.3213C43.5642 27.8084 44.2919 27.7047 44.8048 28.0895L47.3677 30.0114C46.1214 22.6855 39.7159 17.3654 32.2858 17.485C24.8562 17.604 18.6247 23.127 17.6142 30.4892C16.6037 37.8507 21.1162 44.849 28.2391 46.9659C35.3621 49.0827 42.964 45.685 46.1384 38.9661C46.4138 38.3869 47.1064 38.1409 47.6856 38.4164C48.2649 38.6912 48.5114 39.3844 48.236 39.9636C44.5719 47.7321 35.7957 51.6756 27.5539 49.2555C19.3122 46.8361 14.0601 38.7745 15.1771 30.2579C16.2942 21.7413 23.4478 15.3069 32.0347 15.095C40.6216 14.8824 48.0841 20.9558 49.6205 29.4067L51.3038 27.1606C51.6881 26.6477 52.4158 26.544 52.9287 26.9288C53.4416 27.3131 53.5453 28.0408 53.1605 28.5537V28.5537Z" fill="black"/>
</svg>
