<svg width="100" height="140" viewBox="0 0 100 140" fill="none" xmlns="http://www.w3.org/2000/svg">
<rect x="10" y="8" width="80" height="80" rx="40" fill="black"/>
<path d="M58 58C58 53.5817 54.4183 50 50 50H40C35.5817 50 32 53.5817 32 58V60C32 61.1046 32.8954 62 34 62H56C57.1046 62 58 61.1046 58 60V58Z" fill="white"/>
<path d="M45 34C48.866 34 52 37.134 52 41C52 44.866 48.866 48 45 48C41.134 48 38 44.866 38 41C38 37.134 41.134 34 45 34Z" fill="white"/>
<path d="M61 55C61 55.824 61.9408 56.2944 62.6 55.8L71.9333 48.8C72.4667 48.4 72.4667 47.6 71.9333 47.2L62.6 40.2C61.9408 39.7056 61 40.176 61 41V55Z" fill="white"/>
<path d="M36.7676 99.644C36.9236 99.644 37.0016 99.734 37.0016 99.914V112.712C37.0016 112.796 36.9656 112.868 36.8936 112.928C36.8336 112.976 36.7556 113 36.6596 113H34.8416C34.7336 113 34.6496 112.988 34.5896 112.964C34.5296 112.94 34.4636 112.88 34.3916 112.784L28.6496 104.72C28.6016 104.66 28.5536 104.636 28.5056 104.648C28.4696 104.66 28.4516 104.696 28.4516 104.756V112.676V112.73C28.4516 112.826 28.4216 112.898 28.3616 112.946C28.3136 112.982 28.2236 113 28.0916 113H26.2196C25.9796 113 25.8596 112.898 25.8596 112.694V99.986C25.8596 99.758 25.9676 99.644 26.1836 99.644H28.3616C28.5056 99.644 28.6076 99.662 28.6676 99.698C28.7276 99.722 28.7996 99.794 28.8836 99.914L34.1756 107.456C34.2476 107.552 34.3076 107.6 34.3556 107.6C34.4156 107.6 34.4456 107.534 34.4456 107.402V99.968C34.4456 99.752 34.5536 99.644 34.7696 99.644H36.7676ZM39.5178 99.986C39.5178 99.758 39.6138 99.644 39.8058 99.644H48.8778C49.0578 99.644 49.1478 99.746 49.1478 99.95L49.1298 101.57C49.1298 101.822 49.0038 101.948 48.7518 101.948H43.0098C42.7818 101.948 42.6678 102.044 42.6678 102.236V104.846C42.6678 105.05 42.7578 105.152 42.9378 105.152H46.7538C46.9578 105.152 47.0598 105.248 47.0598 105.44V107.168C47.0598 107.336 46.9638 107.42 46.7718 107.42H42.9198C42.7518 107.42 42.6678 107.492 42.6678 107.636V110.462C42.6678 110.546 42.6798 110.606 42.7038 110.642C42.7398 110.678 42.7938 110.696 42.8658 110.696H49.0218C49.2378 110.696 49.3458 110.786 49.3458 110.966V112.676C49.3458 112.892 49.2258 113 48.9858 113H39.9138C39.7698 113 39.6678 112.97 39.6078 112.91C39.5478 112.85 39.5178 112.754 39.5178 112.622V99.986ZM62.4012 112.298C62.5212 112.49 62.5812 112.646 62.5812 112.766C62.5812 112.922 62.4552 113 62.2032 113H59.7012C59.4252 113 59.2332 112.91 59.1252 112.73L56.5872 108.644C56.5032 108.488 56.4252 108.41 56.3532 108.41C56.2812 108.41 56.2032 108.488 56.1192 108.644L53.5992 112.73C53.5032 112.91 53.3052 113 53.0052 113H51.0072C50.7552 113 50.6292 112.928 50.6292 112.784C50.6292 112.652 50.6952 112.49 50.8272 112.298L54.6072 106.52C54.6792 106.412 54.7152 106.322 54.7152 106.25C54.7152 106.19 54.6732 106.088 54.5892 105.944L50.8092 100.13C50.7612 100.07 50.7372 99.992 50.7372 99.896C50.7372 99.728 50.8332 99.644 51.0252 99.644H53.6532C53.7972 99.644 53.9112 99.668 53.9952 99.716C54.0792 99.764 54.1512 99.836 54.2112 99.932L56.4432 103.586C56.5032 103.682 56.5632 103.73 56.6232 103.73C56.6952 103.73 56.7612 103.682 56.8212 103.586L59.0532 99.932C59.1132 99.824 59.1792 99.752 59.2512 99.716C59.3352 99.668 59.4492 99.644 59.5932 99.644H61.7892C61.9692 99.644 62.0592 99.71 62.0592 99.842C62.0592 99.914 62.0292 99.998 61.9692 100.094L58.3332 105.602C58.2732 105.722 58.2432 105.812 58.2432 105.872C58.2432 105.932 58.2792 106.028 58.3512 106.16L62.4012 112.298ZM63.7424 99.968C63.7424 99.872 63.7724 99.794 63.8324 99.734C63.9044 99.674 63.9944 99.644 64.1024 99.644H74.4344C74.6744 99.644 74.7944 99.752 74.7944 99.968V101.642C74.7944 101.822 74.6864 101.912 74.4704 101.912H71.1044C70.9724 101.912 70.9064 101.972 70.9064 102.092V112.658C70.9064 112.886 70.8044 113 70.6004 113H68.0264C67.8464 113 67.7564 112.898 67.7564 112.694V102.146C67.7564 102.062 67.7384 102.002 67.7024 101.966C67.6784 101.93 67.6304 101.912 67.5584 101.912H64.0844C63.8564 101.912 63.7424 101.822 63.7424 101.642V99.968ZM14.4905 124.794C14.1785 124.446 13.8185 124.176 13.4105 123.984C13.0145 123.78 12.4925 123.678 11.8445 123.678C11.1125 123.678 10.5545 123.81 10.1705 124.074C9.7865 124.338 9.5945 124.686 9.5945 125.118C9.5945 125.742 10.0805 126.198 11.0525 126.486L13.8965 127.296C14.9645 127.596 15.7565 128.07 16.2725 128.718C16.8005 129.366 17.0645 130.146 17.0645 131.058C17.0645 131.898 16.8485 132.63 16.4165 133.254C15.9845 133.866 15.3605 134.34 14.5445 134.676C13.7405 135.012 12.7925 135.18 11.7005 135.18C10.4765 135.18 9.3725 134.976 8.3885 134.568C7.4045 134.148 6.6845 133.578 6.2285 132.858C6.1805 132.774 6.1565 132.696 6.1565 132.624C6.1565 132.528 6.2165 132.426 6.3365 132.318L7.7225 131.364C7.8425 131.292 7.9505 131.256 8.0465 131.256C8.1545 131.256 8.2445 131.304 8.3165 131.4C8.7605 131.976 9.2105 132.384 9.6665 132.624C10.1225 132.864 10.7285 132.984 11.4845 132.984C12.2885 132.984 12.9185 132.858 13.3745 132.606C13.8305 132.354 14.0585 131.976 14.0585 131.472C14.0585 131.148 13.9445 130.872 13.7165 130.644C13.4885 130.416 13.1045 130.218 12.5645 130.05L9.8465 129.276C8.8145 128.988 8.0165 128.508 7.4525 127.836C6.8885 127.152 6.6065 126.378 6.6065 125.514C6.6065 124.746 6.8165 124.056 7.2365 123.444C7.6685 122.832 8.2745 122.352 9.0545 122.004C9.8345 121.644 10.7345 121.464 11.7545 121.464C12.7625 121.464 13.6865 121.638 14.5265 121.986C15.3665 122.322 16.0085 122.778 16.4525 123.354C16.5245 123.45 16.5605 123.534 16.5605 123.606C16.5605 123.678 16.5245 123.744 16.4525 123.804L14.9405 124.92C14.8685 124.968 14.8145 124.992 14.7785 124.992C14.7185 124.992 14.6225 124.926 14.4905 124.794ZM29.9301 125.802C29.9301 127.098 29.4801 128.106 28.5801 128.826C27.6921 129.534 26.5161 129.888 25.0521 129.888H22.3521C22.2201 129.888 22.1541 129.954 22.1541 130.086V134.586C22.1541 134.862 21.9981 135 21.6861 135H19.3821C19.2381 135 19.1361 134.97 19.0761 134.91C19.0281 134.85 19.0041 134.76 19.0041 134.64V121.986C19.0041 121.758 19.1001 121.644 19.2921 121.644H24.6921C25.6881 121.644 26.5761 121.8 27.3561 122.112C28.1481 122.412 28.7721 122.874 29.2281 123.498C29.6961 124.122 29.9301 124.89 29.9301 125.802ZM26.6901 125.748C26.6901 125.136 26.4921 124.674 26.0961 124.362C25.7001 124.05 25.1661 123.894 24.4941 123.894H22.4961C22.3761 123.894 22.2861 123.918 22.2261 123.966C22.1781 124.014 22.1541 124.098 22.1541 124.218V127.296C22.1541 127.416 22.1721 127.506 22.2081 127.566C22.2441 127.614 22.3101 127.638 22.4061 127.638H24.6201C25.2561 127.638 25.7601 127.47 26.1321 127.134C26.5041 126.798 26.6901 126.336 26.6901 125.748ZM31.8713 121.986C31.8713 121.758 31.9673 121.644 32.1593 121.644H41.2313C41.4113 121.644 41.5013 121.746 41.5013 121.95L41.4833 123.57C41.4833 123.822 41.3573 123.948 41.1053 123.948H35.3633C35.1353 123.948 35.0213 124.044 35.0213 124.236V126.846C35.0213 127.05 35.1113 127.152 35.2913 127.152H39.1073C39.3113 127.152 39.4133 127.248 39.4133 127.44V129.168C39.4133 129.336 39.3173 129.42 39.1253 129.42H35.2733C35.1053 129.42 35.0213 129.492 35.0213 129.636V132.462C35.0213 132.546 35.0333 132.606 35.0573 132.642C35.0933 132.678 35.1473 132.696 35.2193 132.696H41.3753C41.5913 132.696 41.6993 132.786 41.6993 132.966V134.676C41.6993 134.892 41.5793 135 41.3393 135H32.2673C32.1233 135 32.0213 134.97 31.9613 134.91C31.9013 134.85 31.8713 134.754 31.8713 134.622V121.986ZM43.2527 135C43.0727 135 42.9827 134.898 42.9827 134.694C42.9827 134.598 42.9947 134.526 43.0187 134.478L47.5007 122.004C47.5487 121.872 47.6027 121.782 47.6627 121.734C47.7347 121.674 47.8367 121.644 47.9687 121.644H50.6687C50.8007 121.644 50.9147 121.68 51.0107 121.752C51.1067 121.824 51.1727 121.92 51.2087 122.04L55.6547 134.514C55.6787 134.586 55.6907 134.64 55.6907 134.676C55.6907 134.772 55.6667 134.85 55.6187 134.91C55.5827 134.97 55.5227 135 55.4387 135H52.7927C52.6127 135 52.4987 134.916 52.4507 134.748L51.5147 132.12C51.4907 132.048 51.4607 132 51.4247 131.976C51.4007 131.94 51.3527 131.922 51.2807 131.922H46.8887C46.7687 131.922 46.6907 131.982 46.6547 132.102L45.7007 134.766C45.6287 134.922 45.5027 135 45.3227 135H43.2527ZM50.5427 129.528C50.6627 129.528 50.7227 129.48 50.7227 129.384C50.7227 129.312 50.7167 129.258 50.7047 129.222L49.1927 125.01C49.1567 124.938 49.1147 124.902 49.0667 124.902C49.0307 124.902 48.9947 124.944 48.9587 125.028L47.4287 129.222C47.4047 129.294 47.3927 129.348 47.3927 129.384C47.3927 129.48 47.4587 129.528 47.5907 129.528H50.5427ZM69.0554 134.568C69.0914 134.64 69.1094 134.712 69.1094 134.784C69.1094 134.928 69.0254 135 68.8574 135H66.1574C65.9054 135 65.7314 134.904 65.6354 134.712L62.7374 129.06C62.7014 128.988 62.6594 128.952 62.6114 128.952C62.5634 128.952 62.4914 129.012 62.3954 129.132L60.7934 131.04C60.7214 131.124 60.6854 131.25 60.6854 131.418V134.586C60.6854 134.73 60.6434 134.838 60.5594 134.91C60.4874 134.97 60.3674 135 60.1994 135H57.9314C57.7874 135 57.6854 134.976 57.6254 134.928C57.5654 134.868 57.5354 134.772 57.5354 134.64V121.986C57.5354 121.758 57.6314 121.644 57.8234 121.644H60.4154C60.5954 121.644 60.6854 121.746 60.6854 121.95V127.332C60.6854 127.452 60.7094 127.512 60.7574 127.512C60.7934 127.512 60.8414 127.476 60.9014 127.404L65.2574 121.932C65.3294 121.824 65.4074 121.752 65.4914 121.716C65.5754 121.668 65.7014 121.644 65.8694 121.644H68.0114C68.1194 121.644 68.2034 121.668 68.2634 121.716C68.3354 121.764 68.3714 121.818 68.3714 121.878C68.3714 121.95 68.3474 122.01 68.2994 122.058L64.8434 126.108C64.7834 126.204 64.7534 126.276 64.7534 126.324C64.7534 126.372 64.7714 126.444 64.8074 126.54L69.0554 134.568ZM70.9299 121.986C70.9299 121.758 71.0259 121.644 71.2179 121.644H80.2899C80.4699 121.644 80.5599 121.746 80.5599 121.95L80.5419 123.57C80.5419 123.822 80.4159 123.948 80.1639 123.948H74.4219C74.1939 123.948 74.0799 124.044 74.0799 124.236V126.846C74.0799 127.05 74.1699 127.152 74.3499 127.152H78.1659C78.3699 127.152 78.4719 127.248 78.4719 127.44V129.168C78.4719 129.336 78.3759 129.42 78.1839 129.42H74.3319C74.1639 129.42 74.0799 129.492 74.0799 129.636V132.462C74.0799 132.546 74.0919 132.606 74.1159 132.642C74.1519 132.678 74.2059 132.696 74.2779 132.696H80.4339C80.6499 132.696 80.7579 132.786 80.7579 132.966V134.676C80.7579 134.892 80.6379 135 80.3979 135H71.3259C71.1819 135 71.0799 134.97 71.0199 134.91C70.9599 134.85 70.9299 134.754 70.9299 134.622V121.986ZM93.5433 134.514C93.5673 134.586 93.5793 134.64 93.5793 134.676C93.5793 134.772 93.5493 134.85 93.4893 134.91C93.4293 134.97 93.3573 135 93.2733 135H90.6273C90.4233 135 90.2913 134.892 90.2313 134.676L88.2873 129.636C88.2513 129.54 88.1973 129.474 88.1253 129.438C88.0533 129.402 87.9393 129.384 87.7833 129.384H86.0733C86.0013 129.384 85.9473 129.408 85.9113 129.456C85.8753 129.492 85.8573 129.534 85.8573 129.582V134.568C85.8573 134.724 85.8153 134.838 85.7313 134.91C85.6593 134.97 85.5393 135 85.3713 135H83.0853C82.9413 135 82.8393 134.97 82.7793 134.91C82.7313 134.85 82.7073 134.76 82.7073 134.64V121.986C82.7073 121.758 82.8033 121.644 82.9953 121.644H88.6113C90.2313 121.644 91.4853 121.962 92.3733 122.598C93.2613 123.234 93.7053 124.14 93.7053 125.316C93.7053 126.192 93.4713 126.942 93.0033 127.566C92.5353 128.178 91.9473 128.61 91.2393 128.862C91.1433 128.898 91.1193 128.988 91.1673 129.132L93.5433 134.514ZM88.3233 127.26C89.0193 127.26 89.5473 127.116 89.9073 126.828C90.2673 126.528 90.4473 126.096 90.4473 125.532C90.4473 124.956 90.2613 124.518 89.8893 124.218C89.5293 123.906 89.0373 123.75 88.4133 123.75H86.1993C86.0673 123.75 85.9773 123.774 85.9293 123.822C85.8813 123.858 85.8573 123.93 85.8573 124.038V126.954C85.8573 127.062 85.8753 127.14 85.9113 127.188C85.9473 127.236 86.0133 127.26 86.1093 127.26H88.3233Z" fill="black"/>
</svg>
