<svg width="100" height="140" viewBox="0 0 100 140" fill="none" xmlns="http://www.w3.org/2000/svg">
<rect x="10" y="8" width="80" height="80" rx="40" fill="black"/>
<path d="M34 60.1255C34 61.75 35.8342 62.6968 37.1585 61.7559L54.224 49.6304C55.3461 48.8331 55.3461 47.1669 54.224 46.3696L37.1585 34.2441C35.8342 33.3032 34 34.25 34 35.8745V60.1255Z" fill="white"/>
<path d="M62 60V36C62 34.8954 62.8954 34 64 34C65.1046 34 66 34.8954 66 36V60C66 61.1046 65.1046 62 64 62C62.8954 62 62 61.1046 62 60Z" fill="white"/>
<path d="M36.7676 99.644C36.9236 99.644 37.0016 99.734 37.0016 99.914V112.712C37.0016 112.796 36.9656 112.868 36.8936 112.928C36.8336 112.976 36.7556 113 36.6596 113H34.8416C34.7336 113 34.6496 112.988 34.5896 112.964C34.5296 112.94 34.4636 112.88 34.3916 112.784L28.6496 104.72C28.6016 104.66 28.5536 104.636 28.5056 104.648C28.4696 104.66 28.4516 104.696 28.4516 104.756V112.676V112.73C28.4516 112.826 28.4216 112.898 28.3616 112.946C28.3136 112.982 28.2236 113 28.0916 113H26.2196C25.9796 113 25.8596 112.898 25.8596 112.694V99.986C25.8596 99.758 25.9676 99.644 26.1836 99.644H28.3616C28.5056 99.644 28.6076 99.662 28.6676 99.698C28.7276 99.722 28.7996 99.794 28.8836 99.914L34.1756 107.456C34.2476 107.552 34.3076 107.6 34.3556 107.6C34.4156 107.6 34.4456 107.534 34.4456 107.402V99.968C34.4456 99.752 34.5536 99.644 34.7696 99.644H36.7676ZM39.5178 99.986C39.5178 99.758 39.6138 99.644 39.8058 99.644H48.8778C49.0578 99.644 49.1478 99.746 49.1478 99.95L49.1298 101.57C49.1298 101.822 49.0038 101.948 48.7518 101.948H43.0098C42.7818 101.948 42.6678 102.044 42.6678 102.236V104.846C42.6678 105.05 42.7578 105.152 42.9378 105.152H46.7538C46.9578 105.152 47.0598 105.248 47.0598 105.44V107.168C47.0598 107.336 46.9638 107.42 46.7718 107.42H42.9198C42.7518 107.42 42.6678 107.492 42.6678 107.636V110.462C42.6678 110.546 42.6798 110.606 42.7038 110.642C42.7398 110.678 42.7938 110.696 42.8658 110.696H49.0218C49.2378 110.696 49.3458 110.786 49.3458 110.966V112.676C49.3458 112.892 49.2258 113 48.9858 113H39.9138C39.7698 113 39.6678 112.97 39.6078 112.91C39.5478 112.85 39.5178 112.754 39.5178 112.622V99.986ZM62.4012 112.298C62.5212 112.49 62.5812 112.646 62.5812 112.766C62.5812 112.922 62.4552 113 62.2032 113H59.7012C59.4252 113 59.2332 112.91 59.1252 112.73L56.5872 108.644C56.5032 108.488 56.4252 108.41 56.3532 108.41C56.2812 108.41 56.2032 108.488 56.1192 108.644L53.5992 112.73C53.5032 112.91 53.3052 113 53.0052 113H51.0072C50.7552 113 50.6292 112.928 50.6292 112.784C50.6292 112.652 50.6952 112.49 50.8272 112.298L54.6072 106.52C54.6792 106.412 54.7152 106.322 54.7152 106.25C54.7152 106.19 54.6732 106.088 54.5892 105.944L50.8092 100.13C50.7612 100.07 50.7372 99.992 50.7372 99.896C50.7372 99.728 50.8332 99.644 51.0252 99.644H53.6532C53.7972 99.644 53.9112 99.668 53.9952 99.716C54.0792 99.764 54.1512 99.836 54.2112 99.932L56.4432 103.586C56.5032 103.682 56.5632 103.73 56.6232 103.73C56.6952 103.73 56.7612 103.682 56.8212 103.586L59.0532 99.932C59.1132 99.824 59.1792 99.752 59.2512 99.716C59.3352 99.668 59.4492 99.644 59.5932 99.644H61.7892C61.9692 99.644 62.0592 99.71 62.0592 99.842C62.0592 99.914 62.0292 99.998 61.9692 100.094L58.3332 105.602C58.2732 105.722 58.2432 105.812 58.2432 105.872C58.2432 105.932 58.2792 106.028 58.3512 106.16L62.4012 112.298ZM63.7424 99.968C63.7424 99.872 63.7724 99.794 63.8324 99.734C63.9044 99.674 63.9944 99.644 64.1024 99.644H74.4344C74.6744 99.644 74.7944 99.752 74.7944 99.968V101.642C74.7944 101.822 74.6864 101.912 74.4704 101.912H71.1044C70.9724 101.912 70.9064 101.972 70.9064 102.092V112.658C70.9064 112.886 70.8044 113 70.6004 113H68.0264C67.8464 113 67.7564 112.898 67.7564 112.694V102.146C67.7564 102.062 67.7384 102.002 67.7024 101.966C67.6784 101.93 67.6304 101.912 67.5584 101.912H64.0844C63.8564 101.912 63.7424 101.822 63.7424 101.642V99.968ZM18.1468 124.794C17.8348 124.446 17.4748 124.176 17.0668 123.984C16.6708 123.78 16.1488 123.678 15.5008 123.678C14.7688 123.678 14.2108 123.81 13.8268 124.074C13.4428 124.338 13.2508 124.686 13.2508 125.118C13.2508 125.742 13.7368 126.198 14.7088 126.486L17.5528 127.296C18.6208 127.596 19.4128 128.07 19.9288 128.718C20.4568 129.366 20.7208 130.146 20.7208 131.058C20.7208 131.898 20.5048 132.63 20.0728 133.254C19.6408 133.866 19.0168 134.34 18.2008 134.676C17.3968 135.012 16.4488 135.18 15.3568 135.18C14.1328 135.18 13.0288 134.976 12.0448 134.568C11.0608 134.148 10.3408 133.578 9.88475 132.858C9.83675 132.774 9.81275 132.696 9.81275 132.624C9.81275 132.528 9.87275 132.426 9.99275 132.318L11.3788 131.364C11.4988 131.292 11.6068 131.256 11.7028 131.256C11.8108 131.256 11.9008 131.304 11.9728 131.4C12.4168 131.976 12.8668 132.384 13.3228 132.624C13.7788 132.864 14.3848 132.984 15.1408 132.984C15.9448 132.984 16.5748 132.858 17.0308 132.606C17.4868 132.354 17.7148 131.976 17.7148 131.472C17.7148 131.148 17.6008 130.872 17.3728 130.644C17.1448 130.416 16.7608 130.218 16.2208 130.05L13.5028 129.276C12.4708 128.988 11.6728 128.508 11.1088 127.836C10.5448 127.152 10.2628 126.378 10.2628 125.514C10.2628 124.746 10.4728 124.056 10.8928 123.444C11.3248 122.832 11.9308 122.352 12.7108 122.004C13.4908 121.644 14.3908 121.464 15.4108 121.464C16.4188 121.464 17.3428 121.638 18.1828 121.986C19.0228 122.322 19.6648 122.778 20.1088 123.354C20.1808 123.45 20.2168 123.534 20.2168 123.606C20.2168 123.678 20.1808 123.744 20.1088 123.804L18.5968 124.92C18.5248 124.968 18.4708 124.992 18.4348 124.992C18.3748 124.992 18.2788 124.926 18.1468 124.794ZM22.6604 121.986C22.6604 121.758 22.7564 121.644 22.9484 121.644H32.0204C32.2004 121.644 32.2904 121.746 32.2904 121.95L32.2724 123.57C32.2724 123.822 32.1464 123.948 31.8944 123.948H26.1524C25.9244 123.948 25.8104 124.044 25.8104 124.236V126.846C25.8104 127.05 25.9004 127.152 26.0804 127.152H29.8964C30.1004 127.152 30.2024 127.248 30.2024 127.44V129.168C30.2024 129.336 30.1064 129.42 29.9144 129.42H26.0624C25.8944 129.42 25.8104 129.492 25.8104 129.636V132.462C25.8104 132.546 25.8224 132.606 25.8464 132.642C25.8824 132.678 25.9364 132.696 26.0084 132.696H32.1644C32.3804 132.696 32.4884 132.786 32.4884 132.966V134.676C32.4884 134.892 32.3684 135 32.1284 135H23.0564C22.9124 135 22.8104 134.97 22.7504 134.91C22.6904 134.85 22.6604 134.754 22.6604 134.622V121.986ZM39.0869 121.464C39.9989 121.464 40.8389 121.638 41.6069 121.986C42.3749 122.334 43.0049 122.808 43.4969 123.408C44.0009 124.008 44.3189 124.68 44.4509 125.424C44.4749 125.508 44.4869 125.604 44.4869 125.712C44.4869 125.784 44.4689 125.832 44.4329 125.856C44.3969 125.88 44.3429 125.898 44.2709 125.91L41.8409 126.072C41.7329 126.072 41.6609 126.054 41.6249 126.018C41.6009 125.982 41.5769 125.91 41.5529 125.802C41.4209 125.142 41.1569 124.62 40.7609 124.236C40.3649 123.852 39.8369 123.66 39.1769 123.66C37.2569 123.66 36.2969 125.196 36.2969 128.268C36.2969 129.864 36.5369 131.028 37.0169 131.76C37.4969 132.492 38.2289 132.858 39.2129 132.858C39.9329 132.858 40.5389 132.678 41.0309 132.318C41.5349 131.958 41.9429 131.37 42.2549 130.554C42.2909 130.47 42.3689 130.428 42.4889 130.428C42.5609 130.428 42.6149 130.434 42.6509 130.446L44.4149 130.824C44.5829 130.884 44.6489 131.034 44.6129 131.274C44.4929 131.79 44.2109 132.348 43.7669 132.948C43.3349 133.548 42.7229 134.07 41.9309 134.514C41.1389 134.958 40.1909 135.18 39.0869 135.18C37.8509 135.18 36.7709 134.892 35.8469 134.316C34.9349 133.728 34.2329 132.912 33.7409 131.868C33.2489 130.812 33.0029 129.594 33.0029 128.214C33.0029 126.846 33.2489 125.652 33.7409 124.632C34.2329 123.612 34.9349 122.832 35.8469 122.292C36.7709 121.74 37.8509 121.464 39.0869 121.464ZM45.8479 121.968C45.8479 121.872 45.8779 121.794 45.9379 121.734C46.0099 121.674 46.0999 121.644 46.2079 121.644H56.5399C56.7799 121.644 56.8999 121.752 56.8999 121.968V123.642C56.8999 123.822 56.7919 123.912 56.5759 123.912H53.2099C53.0779 123.912 53.0119 123.972 53.0119 124.092V134.658C53.0119 134.886 52.9099 135 52.7059 135H50.1319C49.9519 135 49.8619 134.898 49.8619 134.694V124.146C49.8619 124.062 49.8439 124.002 49.8079 123.966C49.7839 123.93 49.7359 123.912 49.6639 123.912H46.1899C45.9619 123.912 45.8479 123.822 45.8479 123.642V121.968ZM61.6279 121.644C61.8199 121.644 61.9159 121.752 61.9159 121.968V134.568C61.9159 134.724 61.8799 134.838 61.8079 134.91C61.7359 134.97 61.6099 135 61.4299 135H59.1619C59.0179 135 58.9159 134.97 58.8559 134.91C58.7959 134.85 58.7659 134.754 58.7659 134.622V121.986C58.7659 121.758 58.8619 121.644 59.0539 121.644H61.6279ZM70.1676 135.18C68.9076 135.18 67.8096 134.91 66.8736 134.37C65.9496 133.818 65.2356 133.032 64.7316 132.012C64.2396 130.992 63.9936 129.78 63.9936 128.376C63.9936 126.96 64.2456 125.736 64.7496 124.704C65.2536 123.66 65.9676 122.862 66.8916 122.31C67.8276 121.746 68.9196 121.464 70.1676 121.464C71.4036 121.464 72.4836 121.746 73.4076 122.31C74.3316 122.862 75.0456 123.66 75.5496 124.704C76.0536 125.736 76.3056 126.954 76.3056 128.358C76.3056 129.75 76.0536 130.962 75.5496 131.994C75.0576 133.014 74.3496 133.8 73.4256 134.352C72.5016 134.904 71.4156 135.18 70.1676 135.18ZM70.1676 132.966C71.1636 132.966 71.8836 132.606 72.3276 131.886C72.7836 131.166 73.0116 130.002 73.0116 128.394C73.0116 126.75 72.7776 125.55 72.3096 124.794C71.8536 124.038 71.1396 123.66 70.1676 123.66C69.1716 123.66 68.4396 124.038 67.9716 124.794C67.5156 125.55 67.2876 126.75 67.2876 128.394C67.2876 130.002 67.5156 131.166 67.9716 131.886C68.4276 132.606 69.1596 132.966 70.1676 132.966ZM89.291 121.644C89.447 121.644 89.525 121.734 89.525 121.914V134.712C89.525 134.796 89.489 134.868 89.417 134.928C89.357 134.976 89.279 135 89.183 135H87.365C87.257 135 87.173 134.988 87.113 134.964C87.053 134.94 86.987 134.88 86.915 134.784L81.173 126.72C81.125 126.66 81.077 126.636 81.029 126.648C80.993 126.66 80.975 126.696 80.975 126.756V134.676V134.73C80.975 134.826 80.945 134.898 80.885 134.946C80.837 134.982 80.747 135 80.615 135H78.743C78.503 135 78.383 134.898 78.383 134.694V121.986C78.383 121.758 78.491 121.644 78.707 121.644H80.885C81.029 121.644 81.131 121.662 81.191 121.698C81.251 121.722 81.323 121.794 81.407 121.914L86.699 129.456C86.771 129.552 86.831 129.6 86.879 129.6C86.939 129.6 86.969 129.534 86.969 129.402V121.968C86.969 121.752 87.077 121.644 87.293 121.644H89.291Z" fill="black"/>
</svg>
