<svg width="100" height="140" viewBox="0 0 100 140" fill="none" xmlns="http://www.w3.org/2000/svg">
<rect x="10" y="8" width="80" height="80" rx="40" fill="black"/>
<path d="M54 60V36C54 34.8954 54.8954 34 56 34C57.1046 34 58 34.8954 58 36V60C58 61.1046 57.1046 62 56 62C54.8954 62 54 61.1046 54 60Z" fill="white"/>
<path d="M41 60V36C41 34.8954 41.8954 34 43 34C44.1046 34 45 34.8954 45 36V60C45 61.1046 44.1046 62 43 62C41.8954 62 41 61.1046 41 60Z" fill="white"/>
<path d="M31.5561 114.802C31.5561 116.098 31.1061 117.106 30.2061 117.826C29.3181 118.534 28.1421 118.888 26.6781 118.888H23.9781C23.8461 118.888 23.7801 118.954 23.7801 119.086V123.586C23.7801 123.862 23.6241 124 23.3121 124H21.0081C20.8641 124 20.7621 123.97 20.7021 123.91C20.6541 123.85 20.6301 123.76 20.6301 123.64V110.986C20.6301 110.758 20.7261 110.644 20.9181 110.644H26.3181C27.3141 110.644 28.2021 110.8 28.9821 111.112C29.7741 111.412 30.3981 111.874 30.8541 112.498C31.3221 113.122 31.5561 113.89 31.5561 114.802ZM28.3161 114.748C28.3161 114.136 28.1181 113.674 27.7221 113.362C27.3261 113.05 26.7921 112.894 26.1201 112.894H24.1221C24.0021 112.894 23.9121 112.918 23.8521 112.966C23.8041 113.014 23.7801 113.098 23.7801 113.218V116.296C23.7801 116.416 23.7981 116.506 23.8341 116.566C23.8701 116.614 23.9361 116.638 24.0321 116.638H26.2461C26.8821 116.638 27.3861 116.47 27.7581 116.134C28.1301 115.798 28.3161 115.336 28.3161 114.748ZM31.5369 124C31.3569 124 31.2669 123.898 31.2669 123.694C31.2669 123.598 31.2789 123.526 31.3029 123.478L35.7849 111.004C35.8329 110.872 35.8869 110.782 35.9469 110.734C36.0189 110.674 36.1209 110.644 36.2529 110.644H38.9529C39.0849 110.644 39.1989 110.68 39.2949 110.752C39.3909 110.824 39.4569 110.92 39.4929 111.04L43.9389 123.514C43.9629 123.586 43.9749 123.64 43.9749 123.676C43.9749 123.772 43.9509 123.85 43.9029 123.91C43.8669 123.97 43.8069 124 43.7229 124H41.0769C40.8969 124 40.7829 123.916 40.7349 123.748L39.7989 121.12C39.7749 121.048 39.7449 121 39.7089 120.976C39.6849 120.94 39.6369 120.922 39.5649 120.922H35.1729C35.0529 120.922 34.9749 120.982 34.9389 121.102L33.9849 123.766C33.9129 123.922 33.7869 124 33.6069 124H31.5369ZM38.8269 118.528C38.9469 118.528 39.0069 118.48 39.0069 118.384C39.0069 118.312 39.0009 118.258 38.9889 118.222L37.4769 114.01C37.4409 113.938 37.3989 113.902 37.3509 113.902C37.3149 113.902 37.2789 113.944 37.2429 114.028L35.7129 118.222C35.6889 118.294 35.6769 118.348 35.6769 118.384C35.6769 118.48 35.7429 118.528 35.8749 118.528H38.8269ZM55.5602 119.05C55.5602 120.874 55.0982 122.188 54.1742 122.992C53.2502 123.784 51.9182 124.18 50.1782 124.18C48.2702 124.18 46.8962 123.73 46.0562 122.83C45.2162 121.93 44.7962 120.562 44.7962 118.726V111.004C44.7962 110.896 44.8202 110.812 44.8682 110.752C44.9282 110.68 45.0002 110.644 45.0842 110.644H47.6762C47.8562 110.644 47.9462 110.752 47.9462 110.968V119.122C47.9462 120.094 48.1502 120.808 48.5582 121.264C48.9782 121.708 49.5962 121.93 50.4122 121.93C52.1162 121.93 52.9682 120.976 52.9682 119.068V110.986C52.9682 110.758 53.0582 110.644 53.2382 110.644H55.2902C55.4702 110.644 55.5602 110.752 55.5602 110.968V119.05ZM65.5989 113.794C65.2869 113.446 64.9269 113.176 64.5189 112.984C64.1229 112.78 63.6009 112.678 62.9529 112.678C62.2209 112.678 61.6629 112.81 61.2789 113.074C60.8949 113.338 60.7029 113.686 60.7029 114.118C60.7029 114.742 61.1889 115.198 62.1609 115.486L65.0049 116.296C66.0729 116.596 66.8649 117.07 67.3809 117.718C67.9089 118.366 68.1729 119.146 68.1729 120.058C68.1729 120.898 67.9569 121.63 67.5249 122.254C67.0929 122.866 66.4689 123.34 65.6529 123.676C64.8489 124.012 63.9009 124.18 62.8089 124.18C61.5849 124.18 60.4809 123.976 59.4969 123.568C58.5129 123.148 57.7929 122.578 57.3369 121.858C57.2889 121.774 57.2649 121.696 57.2649 121.624C57.2649 121.528 57.3249 121.426 57.4449 121.318L58.8309 120.364C58.9509 120.292 59.0589 120.256 59.1549 120.256C59.2629 120.256 59.3529 120.304 59.4249 120.4C59.8689 120.976 60.3189 121.384 60.7749 121.624C61.2309 121.864 61.8369 121.984 62.5929 121.984C63.3969 121.984 64.0269 121.858 64.4829 121.606C64.9389 121.354 65.1669 120.976 65.1669 120.472C65.1669 120.148 65.0529 119.872 64.8249 119.644C64.5969 119.416 64.2129 119.218 63.6729 119.05L60.9549 118.276C59.9229 117.988 59.1249 117.508 58.5609 116.836C57.9969 116.152 57.7149 115.378 57.7149 114.514C57.7149 113.746 57.9249 113.056 58.3449 112.444C58.7769 111.832 59.3829 111.352 60.1629 111.004C60.9429 110.644 61.8429 110.464 62.8629 110.464C63.8709 110.464 64.7949 110.638 65.6349 110.986C66.4749 111.322 67.1169 111.778 67.5609 112.354C67.6329 112.45 67.6689 112.534 67.6689 112.606C67.6689 112.678 67.6329 112.744 67.5609 112.804L66.0489 113.92C65.9769 113.968 65.9229 113.992 65.8869 113.992C65.8269 113.992 65.7309 113.926 65.5989 113.794ZM70.1125 110.986C70.1125 110.758 70.2085 110.644 70.4005 110.644H79.4725C79.6525 110.644 79.7425 110.746 79.7425 110.95L79.7245 112.57C79.7245 112.822 79.5985 112.948 79.3465 112.948H73.6045C73.3765 112.948 73.2625 113.044 73.2625 113.236V115.846C73.2625 116.05 73.3525 116.152 73.5325 116.152H77.3485C77.5525 116.152 77.6545 116.248 77.6545 116.44V118.168C77.6545 118.336 77.5585 118.42 77.3665 118.42H73.5145C73.3465 118.42 73.2625 118.492 73.2625 118.636V121.462C73.2625 121.546 73.2745 121.606 73.2985 121.642C73.3345 121.678 73.3885 121.696 73.4605 121.696H79.6165C79.8325 121.696 79.9405 121.786 79.9405 121.966V123.676C79.9405 123.892 79.8205 124 79.5805 124H70.5085C70.3645 124 70.2625 123.97 70.2025 123.91C70.1425 123.85 70.1125 123.754 70.1125 123.622V110.986Z" fill="black"/>
</svg>
