<svg width="100" height="140" viewBox="0 0 100 140" fill="none" xmlns="http://www.w3.org/2000/svg">
<rect x="10" y="8" width="80" height="80" rx="40" fill="black"/>
<path d="M42 63.0613C42 64.698 43.8586 65.6418 45.18 64.6761L65.7903 49.6148C66.8836 48.8158 66.8836 47.1842 65.7903 46.3852L45.18 31.3239C43.8586 30.3582 42 31.302 42 32.9387V63.0613Z" fill="white"/>
<path d="M37.6206 114.802C37.6206 116.098 37.1706 117.106 36.2706 117.826C35.3826 118.534 34.2066 118.888 32.7426 118.888H30.0426C29.9106 118.888 29.8446 118.954 29.8446 119.086V123.586C29.8446 123.862 29.6886 124 29.3766 124H27.0726C26.9286 124 26.8266 123.97 26.7666 123.91C26.7186 123.85 26.6946 123.76 26.6946 123.64V110.986C26.6946 110.758 26.7906 110.644 26.9826 110.644H32.3826C33.3786 110.644 34.2666 110.8 35.0466 111.112C35.8386 111.412 36.4626 111.874 36.9186 112.498C37.3866 113.122 37.6206 113.89 37.6206 114.802ZM34.3806 114.748C34.3806 114.136 34.1826 113.674 33.7866 113.362C33.3906 113.05 32.8566 112.894 32.1846 112.894H30.1866C30.0666 112.894 29.9766 112.918 29.9166 112.966C29.8686 113.014 29.8446 113.098 29.8446 113.218V116.296C29.8446 116.416 29.8626 116.506 29.8986 116.566C29.9346 116.614 30.0006 116.638 30.0966 116.638H32.3106C32.9466 116.638 33.4506 116.47 33.8226 116.134C34.1946 115.798 34.3806 115.336 34.3806 114.748ZM39.5618 110.986C39.5618 110.758 39.6578 110.644 39.8498 110.644H42.4238C42.6158 110.644 42.7118 110.752 42.7118 110.968V121.462C42.7118 121.546 42.7238 121.606 42.7478 121.642C42.7838 121.678 42.8378 121.696 42.9098 121.696H48.6518C48.8678 121.696 48.9758 121.786 48.9758 121.966V123.676C48.9758 123.772 48.9458 123.85 48.8858 123.91C48.8258 123.97 48.7418 124 48.6338 124H39.9578C39.8138 124 39.7118 123.97 39.6518 123.91C39.5918 123.85 39.5618 123.754 39.5618 123.622V110.986ZM50.4509 124C50.2709 124 50.1809 123.898 50.1809 123.694C50.1809 123.598 50.1929 123.526 50.2169 123.478L54.6989 111.004C54.7469 110.872 54.8009 110.782 54.8609 110.734C54.9329 110.674 55.0349 110.644 55.1669 110.644H57.8669C57.9989 110.644 58.1129 110.68 58.2089 110.752C58.3049 110.824 58.3709 110.92 58.4069 111.04L62.8529 123.514C62.8769 123.586 62.8889 123.64 62.8889 123.676C62.8889 123.772 62.8649 123.85 62.8169 123.91C62.7809 123.97 62.7209 124 62.6369 124H59.9909C59.8109 124 59.6969 123.916 59.6489 123.748L58.7129 121.12C58.6889 121.048 58.6589 121 58.6229 120.976C58.5989 120.94 58.5509 120.922 58.4789 120.922H54.0869C53.9669 120.922 53.8889 120.982 53.8529 121.102L52.8989 123.766C52.8269 123.922 52.7009 124 52.5209 124H50.4509ZM57.7409 118.528C57.8609 118.528 57.9209 118.48 57.9209 118.384C57.9209 118.312 57.9149 118.258 57.9029 118.222L56.3909 114.01C56.3549 113.938 56.3129 113.902 56.2649 113.902C56.2289 113.902 56.1929 113.944 56.1569 114.028L54.6269 118.222C54.6029 118.294 54.5909 118.348 54.5909 118.384C54.5909 118.48 54.6569 118.528 54.7889 118.528H57.7409ZM73.7491 110.644C73.9171 110.644 74.0011 110.704 74.0011 110.824C74.0011 110.872 73.9831 110.932 73.9471 111.004L69.7171 117.934C69.6451 118.042 69.6031 118.15 69.5911 118.258C69.5791 118.354 69.5731 118.564 69.5731 118.888V123.568C69.5731 123.856 69.4051 124 69.0691 124H66.8191C66.6751 124 66.5731 123.97 66.5131 123.91C66.4531 123.85 66.4231 123.754 66.4231 123.622V118.78C66.4231 118.636 66.4051 118.528 66.3691 118.456C66.3451 118.372 66.2911 118.258 66.2071 118.114L61.9411 111.058C61.8931 110.962 61.8691 110.896 61.8691 110.86C61.8691 110.8 61.8991 110.752 61.9591 110.716C62.0191 110.668 62.1031 110.644 62.2111 110.644H64.9111C65.0551 110.644 65.1631 110.668 65.2351 110.716C65.3071 110.752 65.3731 110.836 65.4331 110.968L68.0971 115.648C68.1691 115.78 68.2291 115.846 68.2771 115.846C68.3371 115.846 68.3911 115.792 68.4391 115.684L71.0671 110.968C71.1391 110.836 71.2051 110.752 71.2651 110.716C71.3371 110.668 71.4451 110.644 71.5891 110.644H73.7491Z" fill="black"/>
</svg>
