<svg width="100" height="140" viewBox="0 0 100 140" fill="none" xmlns="http://www.w3.org/2000/svg">
<rect x="10" y="8" width="80" height="80" rx="40" fill="black"/>
<path d="M66.0002 60.1255C66.0002 61.75 64.166 62.6968 62.8418 61.7559L45.7763 49.6304C44.6542 48.8331 44.6542 47.1669 45.7763 46.3696L62.8418 34.2441C64.166 33.3032 66.0002 34.25 66.0002 35.8745V60.1255Z" fill="white"/>
<path d="M38 60V36C38 34.8954 37.1046 34 36 34C34.8954 34 34 34.8954 34 36V60C34 61.1046 34.8954 62 36 62C37.1046 62 38 61.1046 38 60Z" fill="white"/>
<path d="M36.768 103.802C36.768 105.098 36.318 106.106 35.418 106.826C34.53 107.534 33.354 107.888 31.89 107.888H29.19C29.058 107.888 28.992 107.954 28.992 108.086V112.586C28.992 112.862 28.836 113 28.524 113H26.22C26.076 113 25.974 112.97 25.914 112.91C25.866 112.85 25.842 112.76 25.842 112.64V99.986C25.842 99.758 25.938 99.644 26.13 99.644H31.53C32.526 99.644 33.414 99.8 34.194 100.112C34.986 100.412 35.61 100.874 36.066 101.498C36.534 102.122 36.768 102.89 36.768 103.802ZM33.528 103.748C33.528 103.136 33.33 102.674 32.934 102.362C32.538 102.05 32.004 101.894 31.332 101.894H29.334C29.214 101.894 29.124 101.918 29.064 101.966C29.016 102.014 28.992 102.098 28.992 102.218V105.296C28.992 105.416 29.01 105.506 29.046 105.566C29.082 105.614 29.148 105.638 29.244 105.638H31.458C32.094 105.638 32.598 105.47 32.97 105.134C33.342 104.798 33.528 104.336 33.528 103.748ZM49.5452 112.514C49.5692 112.586 49.5812 112.64 49.5812 112.676C49.5812 112.772 49.5512 112.85 49.4912 112.91C49.4312 112.97 49.3592 113 49.2752 113H46.6292C46.4252 113 46.2932 112.892 46.2332 112.676L44.2892 107.636C44.2532 107.54 44.1992 107.474 44.1272 107.438C44.0552 107.402 43.9412 107.384 43.7852 107.384H42.0752C42.0032 107.384 41.9492 107.408 41.9132 107.456C41.8772 107.492 41.8592 107.534 41.8592 107.582V112.568C41.8592 112.724 41.8172 112.838 41.7332 112.91C41.6612 112.97 41.5412 113 41.3732 113H39.0872C38.9432 113 38.8412 112.97 38.7812 112.91C38.7332 112.85 38.7092 112.76 38.7092 112.64V99.986C38.7092 99.758 38.8052 99.644 38.9972 99.644H44.6132C46.2332 99.644 47.4872 99.962 48.3752 100.598C49.2632 101.234 49.7072 102.14 49.7072 103.316C49.7072 104.192 49.4732 104.942 49.0052 105.566C48.5372 106.178 47.9492 106.61 47.2412 106.862C47.1452 106.898 47.1212 106.988 47.1692 107.132L49.5452 112.514ZM44.3252 105.26C45.0212 105.26 45.5492 105.116 45.9092 104.828C46.2692 104.528 46.4492 104.096 46.4492 103.532C46.4492 102.956 46.2632 102.518 45.8912 102.218C45.5312 101.906 45.0392 101.75 44.4152 101.75H42.2012C42.0692 101.75 41.9792 101.774 41.9312 101.822C41.8832 101.858 41.8592 101.93 41.8592 102.038V104.954C41.8592 105.062 41.8772 105.14 41.9132 105.188C41.9492 105.236 42.0152 105.26 42.1112 105.26H44.3252ZM51.6995 99.986C51.6995 99.758 51.7955 99.644 51.9875 99.644H61.0595C61.2395 99.644 61.3295 99.746 61.3295 99.95L61.3115 101.57C61.3115 101.822 61.1855 101.948 60.9335 101.948H55.1915C54.9635 101.948 54.8495 102.044 54.8495 102.236V104.846C54.8495 105.05 54.9395 105.152 55.1195 105.152H58.9355C59.1395 105.152 59.2415 105.248 59.2415 105.44V107.168C59.2415 107.336 59.1455 107.42 58.9535 107.42H55.1015C54.9335 107.42 54.8495 107.492 54.8495 107.636V110.462C54.8495 110.546 54.8615 110.606 54.8855 110.642C54.9215 110.678 54.9755 110.696 55.0475 110.696H61.2035C61.4195 110.696 61.5275 110.786 61.5275 110.966V112.676C61.5275 112.892 61.4075 113 61.1675 113H52.0955C51.9515 113 51.8495 112.97 51.7895 112.91C51.7295 112.85 51.6995 112.754 51.6995 112.622V99.986ZM74.5468 99.644C74.6668 99.644 74.7508 99.686 74.7988 99.77C74.8588 99.854 74.8648 99.95 74.8168 100.058L70.4968 112.622C70.4128 112.874 70.2268 113 69.9388 113H67.6888C67.4008 113 67.2088 112.874 67.1128 112.622L62.8288 100.076L62.7928 99.932C62.7928 99.848 62.8228 99.782 62.8828 99.734C62.9428 99.674 63.0208 99.644 63.1168 99.644H65.7088C65.9008 99.644 66.0268 99.746 66.0868 99.95L69.0388 109.058C69.0508 109.142 69.0808 109.184 69.1288 109.184C69.1768 109.184 69.2188 109.136 69.2548 109.04L72.1168 99.95C72.1768 99.746 72.3088 99.644 72.5128 99.644H74.5468ZM18.1468 124.794C17.8348 124.446 17.4748 124.176 17.0668 123.984C16.6708 123.78 16.1488 123.678 15.5008 123.678C14.7688 123.678 14.2108 123.81 13.8268 124.074C13.4428 124.338 13.2508 124.686 13.2508 125.118C13.2508 125.742 13.7368 126.198 14.7088 126.486L17.5528 127.296C18.6208 127.596 19.4128 128.07 19.9288 128.718C20.4568 129.366 20.7208 130.146 20.7208 131.058C20.7208 131.898 20.5048 132.63 20.0728 133.254C19.6408 133.866 19.0168 134.34 18.2008 134.676C17.3968 135.012 16.4488 135.18 15.3568 135.18C14.1328 135.18 13.0288 134.976 12.0448 134.568C11.0608 134.148 10.3408 133.578 9.88475 132.858C9.83675 132.774 9.81275 132.696 9.81275 132.624C9.81275 132.528 9.87275 132.426 9.99275 132.318L11.3788 131.364C11.4988 131.292 11.6068 131.256 11.7028 131.256C11.8108 131.256 11.9008 131.304 11.9728 131.4C12.4168 131.976 12.8668 132.384 13.3228 132.624C13.7788 132.864 14.3848 132.984 15.1408 132.984C15.9448 132.984 16.5748 132.858 17.0308 132.606C17.4868 132.354 17.7148 131.976 17.7148 131.472C17.7148 131.148 17.6008 130.872 17.3728 130.644C17.1448 130.416 16.7608 130.218 16.2208 130.05L13.5028 129.276C12.4708 128.988 11.6728 128.508 11.1088 127.836C10.5448 127.152 10.2628 126.378 10.2628 125.514C10.2628 124.746 10.4728 124.056 10.8928 123.444C11.3248 122.832 11.9308 122.352 12.7108 122.004C13.4908 121.644 14.3908 121.464 15.4108 121.464C16.4188 121.464 17.3428 121.638 18.1828 121.986C19.0228 122.322 19.6648 122.778 20.1088 123.354C20.1808 123.45 20.2168 123.534 20.2168 123.606C20.2168 123.678 20.1808 123.744 20.1088 123.804L18.5968 124.92C18.5248 124.968 18.4708 124.992 18.4348 124.992C18.3748 124.992 18.2788 124.926 18.1468 124.794ZM22.6604 121.986C22.6604 121.758 22.7564 121.644 22.9484 121.644H32.0204C32.2004 121.644 32.2904 121.746 32.2904 121.95L32.2724 123.57C32.2724 123.822 32.1464 123.948 31.8944 123.948H26.1524C25.9244 123.948 25.8104 124.044 25.8104 124.236V126.846C25.8104 127.05 25.9004 127.152 26.0804 127.152H29.8964C30.1004 127.152 30.2024 127.248 30.2024 127.44V129.168C30.2024 129.336 30.1064 129.42 29.9144 129.42H26.0624C25.8944 129.42 25.8104 129.492 25.8104 129.636V132.462C25.8104 132.546 25.8224 132.606 25.8464 132.642C25.8824 132.678 25.9364 132.696 26.0084 132.696H32.1644C32.3804 132.696 32.4884 132.786 32.4884 132.966V134.676C32.4884 134.892 32.3684 135 32.1284 135H23.0564C22.9124 135 22.8104 134.97 22.7504 134.91C22.6904 134.85 22.6604 134.754 22.6604 134.622V121.986ZM39.0869 121.464C39.9989 121.464 40.8389 121.638 41.6069 121.986C42.3749 122.334 43.0049 122.808 43.4969 123.408C44.0009 124.008 44.3189 124.68 44.4509 125.424C44.4749 125.508 44.4869 125.604 44.4869 125.712C44.4869 125.784 44.4689 125.832 44.4329 125.856C44.3969 125.88 44.3429 125.898 44.2709 125.91L41.8409 126.072C41.7329 126.072 41.6609 126.054 41.6249 126.018C41.6009 125.982 41.5769 125.91 41.5529 125.802C41.4209 125.142 41.1569 124.62 40.7609 124.236C40.3649 123.852 39.8369 123.66 39.1769 123.66C37.2569 123.66 36.2969 125.196 36.2969 128.268C36.2969 129.864 36.5369 131.028 37.0169 131.76C37.4969 132.492 38.2289 132.858 39.2129 132.858C39.9329 132.858 40.5389 132.678 41.0309 132.318C41.5349 131.958 41.9429 131.37 42.2549 130.554C42.2909 130.47 42.3689 130.428 42.4889 130.428C42.5609 130.428 42.6149 130.434 42.6509 130.446L44.4149 130.824C44.5829 130.884 44.6489 131.034 44.6129 131.274C44.4929 131.79 44.2109 132.348 43.7669 132.948C43.3349 133.548 42.7229 134.07 41.9309 134.514C41.1389 134.958 40.1909 135.18 39.0869 135.18C37.8509 135.18 36.7709 134.892 35.8469 134.316C34.9349 133.728 34.2329 132.912 33.7409 131.868C33.2489 130.812 33.0029 129.594 33.0029 128.214C33.0029 126.846 33.2489 125.652 33.7409 124.632C34.2329 123.612 34.9349 122.832 35.8469 122.292C36.7709 121.74 37.8509 121.464 39.0869 121.464ZM45.8479 121.968C45.8479 121.872 45.8779 121.794 45.9379 121.734C46.0099 121.674 46.0999 121.644 46.2079 121.644H56.5399C56.7799 121.644 56.8999 121.752 56.8999 121.968V123.642C56.8999 123.822 56.7919 123.912 56.5759 123.912H53.2099C53.0779 123.912 53.0119 123.972 53.0119 124.092V134.658C53.0119 134.886 52.9099 135 52.7059 135H50.1319C49.9519 135 49.8619 134.898 49.8619 134.694V124.146C49.8619 124.062 49.8439 124.002 49.8079 123.966C49.7839 123.93 49.7359 123.912 49.6639 123.912H46.1899C45.9619 123.912 45.8479 123.822 45.8479 123.642V121.968ZM61.6279 121.644C61.8199 121.644 61.9159 121.752 61.9159 121.968V134.568C61.9159 134.724 61.8799 134.838 61.8079 134.91C61.7359 134.97 61.6099 135 61.4299 135H59.1619C59.0179 135 58.9159 134.97 58.8559 134.91C58.7959 134.85 58.7659 134.754 58.7659 134.622V121.986C58.7659 121.758 58.8619 121.644 59.0539 121.644H61.6279ZM70.1676 135.18C68.9076 135.18 67.8096 134.91 66.8736 134.37C65.9496 133.818 65.2356 133.032 64.7316 132.012C64.2396 130.992 63.9936 129.78 63.9936 128.376C63.9936 126.96 64.2456 125.736 64.7496 124.704C65.2536 123.66 65.9676 122.862 66.8916 122.31C67.8276 121.746 68.9196 121.464 70.1676 121.464C71.4036 121.464 72.4836 121.746 73.4076 122.31C74.3316 122.862 75.0456 123.66 75.5496 124.704C76.0536 125.736 76.3056 126.954 76.3056 128.358C76.3056 129.75 76.0536 130.962 75.5496 131.994C75.0576 133.014 74.3496 133.8 73.4256 134.352C72.5016 134.904 71.4156 135.18 70.1676 135.18ZM70.1676 132.966C71.1636 132.966 71.8836 132.606 72.3276 131.886C72.7836 131.166 73.0116 130.002 73.0116 128.394C73.0116 126.75 72.7776 125.55 72.3096 124.794C71.8536 124.038 71.1396 123.66 70.1676 123.66C69.1716 123.66 68.4396 124.038 67.9716 124.794C67.5156 125.55 67.2876 126.75 67.2876 128.394C67.2876 130.002 67.5156 131.166 67.9716 131.886C68.4276 132.606 69.1596 132.966 70.1676 132.966ZM89.291 121.644C89.447 121.644 89.525 121.734 89.525 121.914V134.712C89.525 134.796 89.489 134.868 89.417 134.928C89.357 134.976 89.279 135 89.183 135H87.365C87.257 135 87.173 134.988 87.113 134.964C87.053 134.94 86.987 134.88 86.915 134.784L81.173 126.72C81.125 126.66 81.077 126.636 81.029 126.648C80.993 126.66 80.975 126.696 80.975 126.756V134.676V134.73C80.975 134.826 80.945 134.898 80.885 134.946C80.837 134.982 80.747 135 80.615 135H78.743C78.503 135 78.383 134.898 78.383 134.694V121.986C78.383 121.758 78.491 121.644 78.707 121.644H80.885C81.029 121.644 81.131 121.662 81.191 121.698C81.251 121.722 81.323 121.794 81.407 121.914L86.699 129.456C86.771 129.552 86.831 129.6 86.879 129.6C86.939 129.6 86.969 129.534 86.969 129.402V121.968C86.969 121.752 87.077 121.644 87.293 121.644H89.291Z" fill="black"/>
</svg>
