<svg width="100" height="140" viewBox="0 0 100 140" fill="none" xmlns="http://www.w3.org/2000/svg">
<rect x="10" y="8" width="80" height="80" rx="40" fill="black"/>
<path d="M42 58C42 53.5817 45.5817 50 50 50H60C64.4183 50 68 53.5817 68 58V60C68 61.1046 67.1046 62 66 62H44C42.8954 62 42 61.1046 42 60V58Z" fill="white"/>
<path d="M55 34C51.134 34 48 37.134 48 41C48 44.866 51.134 48 55 48C58.866 48 62 44.866 62 41C62 37.134 58.866 34 55 34Z" fill="white"/>
<path d="M39 55C39 55.824 38.0592 56.2944 37.4 55.8L28.0667 48.8C27.5333 48.4 27.5333 47.6 28.0667 47.2L37.4 40.2C38.0592 39.7056 39 40.176 39 41V55Z" fill="white"/>
<path d="M36.768 103.802C36.768 105.098 36.318 106.106 35.418 106.826C34.53 107.534 33.354 107.888 31.89 107.888H29.19C29.058 107.888 28.992 107.954 28.992 108.086V112.586C28.992 112.862 28.836 113 28.524 113H26.22C26.076 113 25.974 112.97 25.914 112.91C25.866 112.85 25.842 112.76 25.842 112.64V99.986C25.842 99.758 25.938 99.644 26.13 99.644H31.53C32.526 99.644 33.414 99.8 34.194 100.112C34.986 100.412 35.61 100.874 36.066 101.498C36.534 102.122 36.768 102.89 36.768 103.802ZM33.528 103.748C33.528 103.136 33.33 102.674 32.934 102.362C32.538 102.05 32.004 101.894 31.332 101.894H29.334C29.214 101.894 29.124 101.918 29.064 101.966C29.016 102.014 28.992 102.098 28.992 102.218V105.296C28.992 105.416 29.01 105.506 29.046 105.566C29.082 105.614 29.148 105.638 29.244 105.638H31.458C32.094 105.638 32.598 105.47 32.97 105.134C33.342 104.798 33.528 104.336 33.528 103.748ZM49.5452 112.514C49.5692 112.586 49.5812 112.64 49.5812 112.676C49.5812 112.772 49.5512 112.85 49.4912 112.91C49.4312 112.97 49.3592 113 49.2752 113H46.6292C46.4252 113 46.2932 112.892 46.2332 112.676L44.2892 107.636C44.2532 107.54 44.1992 107.474 44.1272 107.438C44.0552 107.402 43.9412 107.384 43.7852 107.384H42.0752C42.0032 107.384 41.9492 107.408 41.9132 107.456C41.8772 107.492 41.8592 107.534 41.8592 107.582V112.568C41.8592 112.724 41.8172 112.838 41.7332 112.91C41.6612 112.97 41.5412 113 41.3732 113H39.0872C38.9432 113 38.8412 112.97 38.7812 112.91C38.7332 112.85 38.7092 112.76 38.7092 112.64V99.986C38.7092 99.758 38.8052 99.644 38.9972 99.644H44.6132C46.2332 99.644 47.4872 99.962 48.3752 100.598C49.2632 101.234 49.7072 102.14 49.7072 103.316C49.7072 104.192 49.4732 104.942 49.0052 105.566C48.5372 106.178 47.9492 106.61 47.2412 106.862C47.1452 106.898 47.1212 106.988 47.1692 107.132L49.5452 112.514ZM44.3252 105.26C45.0212 105.26 45.5492 105.116 45.9092 104.828C46.2692 104.528 46.4492 104.096 46.4492 103.532C46.4492 102.956 46.2632 102.518 45.8912 102.218C45.5312 101.906 45.0392 101.75 44.4152 101.75H42.2012C42.0692 101.75 41.9792 101.774 41.9312 101.822C41.8832 101.858 41.8592 101.93 41.8592 102.038V104.954C41.8592 105.062 41.8772 105.14 41.9132 105.188C41.9492 105.236 42.0152 105.26 42.1112 105.26H44.3252ZM51.6995 99.986C51.6995 99.758 51.7955 99.644 51.9875 99.644H61.0595C61.2395 99.644 61.3295 99.746 61.3295 99.95L61.3115 101.57C61.3115 101.822 61.1855 101.948 60.9335 101.948H55.1915C54.9635 101.948 54.8495 102.044 54.8495 102.236V104.846C54.8495 105.05 54.9395 105.152 55.1195 105.152H58.9355C59.1395 105.152 59.2415 105.248 59.2415 105.44V107.168C59.2415 107.336 59.1455 107.42 58.9535 107.42H55.1015C54.9335 107.42 54.8495 107.492 54.8495 107.636V110.462C54.8495 110.546 54.8615 110.606 54.8855 110.642C54.9215 110.678 54.9755 110.696 55.0475 110.696H61.2035C61.4195 110.696 61.5275 110.786 61.5275 110.966V112.676C61.5275 112.892 61.4075 113 61.1675 113H52.0955C51.9515 113 51.8495 112.97 51.7895 112.91C51.7295 112.85 51.6995 112.754 51.6995 112.622V99.986ZM74.5468 99.644C74.6668 99.644 74.7508 99.686 74.7988 99.77C74.8588 99.854 74.8648 99.95 74.8168 100.058L70.4968 112.622C70.4128 112.874 70.2268 113 69.9388 113H67.6888C67.4008 113 67.2088 112.874 67.1128 112.622L62.8288 100.076L62.7928 99.932C62.7928 99.848 62.8228 99.782 62.8828 99.734C62.9428 99.674 63.0208 99.644 63.1168 99.644H65.7088C65.9008 99.644 66.0268 99.746 66.0868 99.95L69.0388 109.058C69.0508 109.142 69.0808 109.184 69.1288 109.184C69.1768 109.184 69.2188 109.136 69.2548 109.04L72.1168 99.95C72.1768 99.746 72.3088 99.644 72.5128 99.644H74.5468ZM14.4905 124.794C14.1785 124.446 13.8185 124.176 13.4105 123.984C13.0145 123.78 12.4925 123.678 11.8445 123.678C11.1125 123.678 10.5545 123.81 10.1705 124.074C9.7865 124.338 9.5945 124.686 9.5945 125.118C9.5945 125.742 10.0805 126.198 11.0525 126.486L13.8965 127.296C14.9645 127.596 15.7565 128.07 16.2725 128.718C16.8005 129.366 17.0645 130.146 17.0645 131.058C17.0645 131.898 16.8485 132.63 16.4165 133.254C15.9845 133.866 15.3605 134.34 14.5445 134.676C13.7405 135.012 12.7925 135.18 11.7005 135.18C10.4765 135.18 9.3725 134.976 8.3885 134.568C7.4045 134.148 6.6845 133.578 6.2285 132.858C6.1805 132.774 6.1565 132.696 6.1565 132.624C6.1565 132.528 6.2165 132.426 6.3365 132.318L7.7225 131.364C7.8425 131.292 7.9505 131.256 8.0465 131.256C8.1545 131.256 8.2445 131.304 8.3165 131.4C8.7605 131.976 9.2105 132.384 9.6665 132.624C10.1225 132.864 10.7285 132.984 11.4845 132.984C12.2885 132.984 12.9185 132.858 13.3745 132.606C13.8305 132.354 14.0585 131.976 14.0585 131.472C14.0585 131.148 13.9445 130.872 13.7165 130.644C13.4885 130.416 13.1045 130.218 12.5645 130.05L9.8465 129.276C8.8145 128.988 8.0165 128.508 7.4525 127.836C6.8885 127.152 6.6065 126.378 6.6065 125.514C6.6065 124.746 6.8165 124.056 7.2365 123.444C7.6685 122.832 8.2745 122.352 9.0545 122.004C9.8345 121.644 10.7345 121.464 11.7545 121.464C12.7625 121.464 13.6865 121.638 14.5265 121.986C15.3665 122.322 16.0085 122.778 16.4525 123.354C16.5245 123.45 16.5605 123.534 16.5605 123.606C16.5605 123.678 16.5245 123.744 16.4525 123.804L14.9405 124.92C14.8685 124.968 14.8145 124.992 14.7785 124.992C14.7185 124.992 14.6225 124.926 14.4905 124.794ZM29.9301 125.802C29.9301 127.098 29.4801 128.106 28.5801 128.826C27.6921 129.534 26.5161 129.888 25.0521 129.888H22.3521C22.2201 129.888 22.1541 129.954 22.1541 130.086V134.586C22.1541 134.862 21.9981 135 21.6861 135H19.3821C19.2381 135 19.1361 134.97 19.0761 134.91C19.0281 134.85 19.0041 134.76 19.0041 134.64V121.986C19.0041 121.758 19.1001 121.644 19.2921 121.644H24.6921C25.6881 121.644 26.5761 121.8 27.3561 122.112C28.1481 122.412 28.7721 122.874 29.2281 123.498C29.6961 124.122 29.9301 124.89 29.9301 125.802ZM26.6901 125.748C26.6901 125.136 26.4921 124.674 26.0961 124.362C25.7001 124.05 25.1661 123.894 24.4941 123.894H22.4961C22.3761 123.894 22.2861 123.918 22.2261 123.966C22.1781 124.014 22.1541 124.098 22.1541 124.218V127.296C22.1541 127.416 22.1721 127.506 22.2081 127.566C22.2441 127.614 22.3101 127.638 22.4061 127.638H24.6201C25.2561 127.638 25.7601 127.47 26.1321 127.134C26.5041 126.798 26.6901 126.336 26.6901 125.748ZM31.8713 121.986C31.8713 121.758 31.9673 121.644 32.1593 121.644H41.2313C41.4113 121.644 41.5013 121.746 41.5013 121.95L41.4833 123.57C41.4833 123.822 41.3573 123.948 41.1053 123.948H35.3633C35.1353 123.948 35.0213 124.044 35.0213 124.236V126.846C35.0213 127.05 35.1113 127.152 35.2913 127.152H39.1073C39.3113 127.152 39.4133 127.248 39.4133 127.44V129.168C39.4133 129.336 39.3173 129.42 39.1253 129.42H35.2733C35.1053 129.42 35.0213 129.492 35.0213 129.636V132.462C35.0213 132.546 35.0333 132.606 35.0573 132.642C35.0933 132.678 35.1473 132.696 35.2193 132.696H41.3753C41.5913 132.696 41.6993 132.786 41.6993 132.966V134.676C41.6993 134.892 41.5793 135 41.3393 135H32.2673C32.1233 135 32.0213 134.97 31.9613 134.91C31.9013 134.85 31.8713 134.754 31.8713 134.622V121.986ZM43.2527 135C43.0727 135 42.9827 134.898 42.9827 134.694C42.9827 134.598 42.9947 134.526 43.0187 134.478L47.5007 122.004C47.5487 121.872 47.6027 121.782 47.6627 121.734C47.7347 121.674 47.8367 121.644 47.9687 121.644H50.6687C50.8007 121.644 50.9147 121.68 51.0107 121.752C51.1067 121.824 51.1727 121.92 51.2087 122.04L55.6547 134.514C55.6787 134.586 55.6907 134.64 55.6907 134.676C55.6907 134.772 55.6667 134.85 55.6187 134.91C55.5827 134.97 55.5227 135 55.4387 135H52.7927C52.6127 135 52.4987 134.916 52.4507 134.748L51.5147 132.12C51.4907 132.048 51.4607 132 51.4247 131.976C51.4007 131.94 51.3527 131.922 51.2807 131.922H46.8887C46.7687 131.922 46.6907 131.982 46.6547 132.102L45.7007 134.766C45.6287 134.922 45.5027 135 45.3227 135H43.2527ZM50.5427 129.528C50.6627 129.528 50.7227 129.48 50.7227 129.384C50.7227 129.312 50.7167 129.258 50.7047 129.222L49.1927 125.01C49.1567 124.938 49.1147 124.902 49.0667 124.902C49.0307 124.902 48.9947 124.944 48.9587 125.028L47.4287 129.222C47.4047 129.294 47.3927 129.348 47.3927 129.384C47.3927 129.48 47.4587 129.528 47.5907 129.528H50.5427ZM69.0554 134.568C69.0914 134.64 69.1094 134.712 69.1094 134.784C69.1094 134.928 69.0254 135 68.8574 135H66.1574C65.9054 135 65.7314 134.904 65.6354 134.712L62.7374 129.06C62.7014 128.988 62.6594 128.952 62.6114 128.952C62.5634 128.952 62.4914 129.012 62.3954 129.132L60.7934 131.04C60.7214 131.124 60.6854 131.25 60.6854 131.418V134.586C60.6854 134.73 60.6434 134.838 60.5594 134.91C60.4874 134.97 60.3674 135 60.1994 135H57.9314C57.7874 135 57.6854 134.976 57.6254 134.928C57.5654 134.868 57.5354 134.772 57.5354 134.64V121.986C57.5354 121.758 57.6314 121.644 57.8234 121.644H60.4154C60.5954 121.644 60.6854 121.746 60.6854 121.95V127.332C60.6854 127.452 60.7094 127.512 60.7574 127.512C60.7934 127.512 60.8414 127.476 60.9014 127.404L65.2574 121.932C65.3294 121.824 65.4074 121.752 65.4914 121.716C65.5754 121.668 65.7014 121.644 65.8694 121.644H68.0114C68.1194 121.644 68.2034 121.668 68.2634 121.716C68.3354 121.764 68.3714 121.818 68.3714 121.878C68.3714 121.95 68.3474 122.01 68.2994 122.058L64.8434 126.108C64.7834 126.204 64.7534 126.276 64.7534 126.324C64.7534 126.372 64.7714 126.444 64.8074 126.54L69.0554 134.568ZM70.9299 121.986C70.9299 121.758 71.0259 121.644 71.2179 121.644H80.2899C80.4699 121.644 80.5599 121.746 80.5599 121.95L80.5419 123.57C80.5419 123.822 80.4159 123.948 80.1639 123.948H74.4219C74.1939 123.948 74.0799 124.044 74.0799 124.236V126.846C74.0799 127.05 74.1699 127.152 74.3499 127.152H78.1659C78.3699 127.152 78.4719 127.248 78.4719 127.44V129.168C78.4719 129.336 78.3759 129.42 78.1839 129.42H74.3319C74.1639 129.42 74.0799 129.492 74.0799 129.636V132.462C74.0799 132.546 74.0919 132.606 74.1159 132.642C74.1519 132.678 74.2059 132.696 74.2779 132.696H80.4339C80.6499 132.696 80.7579 132.786 80.7579 132.966V134.676C80.7579 134.892 80.6379 135 80.3979 135H71.3259C71.1819 135 71.0799 134.97 71.0199 134.91C70.9599 134.85 70.9299 134.754 70.9299 134.622V121.986ZM93.5433 134.514C93.5673 134.586 93.5793 134.64 93.5793 134.676C93.5793 134.772 93.5493 134.85 93.4893 134.91C93.4293 134.97 93.3573 135 93.2733 135H90.6273C90.4233 135 90.2913 134.892 90.2313 134.676L88.2873 129.636C88.2513 129.54 88.1973 129.474 88.1253 129.438C88.0533 129.402 87.9393 129.384 87.7833 129.384H86.0733C86.0013 129.384 85.9473 129.408 85.9113 129.456C85.8753 129.492 85.8573 129.534 85.8573 129.582V134.568C85.8573 134.724 85.8153 134.838 85.7313 134.91C85.6593 134.97 85.5393 135 85.3713 135H83.0853C82.9413 135 82.8393 134.97 82.7793 134.91C82.7313 134.85 82.7073 134.76 82.7073 134.64V121.986C82.7073 121.758 82.8033 121.644 82.9953 121.644H88.6113C90.2313 121.644 91.4853 121.962 92.3733 122.598C93.2613 123.234 93.7053 124.14 93.7053 125.316C93.7053 126.192 93.4713 126.942 93.0033 127.566C92.5353 128.178 91.9473 128.61 91.2393 128.862C91.1433 128.898 91.1193 128.988 91.1673 129.132L93.5433 134.514ZM88.3233 127.26C89.0193 127.26 89.5473 127.116 89.9073 126.828C90.2673 126.528 90.4473 126.096 90.4473 125.532C90.4473 124.956 90.2613 124.518 89.8893 124.218C89.5293 123.906 89.0373 123.75 88.4133 123.75H86.1993C86.0673 123.75 85.9773 123.774 85.9293 123.822C85.8813 123.858 85.8573 123.93 85.8573 124.038V126.954C85.8573 127.062 85.8753 127.14 85.9113 127.188C85.9473 127.236 86.0133 127.26 86.1093 127.26H88.3233Z" fill="black"/>
</svg>
