<svg width="100" height="140" viewBox="0 0 100 140" fill="none" xmlns="http://www.w3.org/2000/svg">
<circle cx="50" cy="48" r="40" fill="black"/>
<path d="M61.2971 36.7C59.8159 35.2097 58.0543 34.0271 56.1136 33.2205C54.173 32.4138 52.0918 31.999 49.99 32C41.1445 32 34 39.16 34 48C34 56.84 41.1445 64 49.99 64C57.4547 64 63.6785 58.9 65.4597 52H61.2971C60.4727 54.339 58.9423 56.3648 56.917 57.7977C54.8917 59.2306 52.4714 60.0001 49.99 60C43.3659 60 37.9825 54.62 37.9825 48C37.9825 41.38 43.3659 36 49.99 36C53.3121 36 56.2739 37.38 58.4353 39.56L51.9912 46H66V32L61.2971 36.7Z" fill="white"/>
<path d="M35.9837 123.514C36.0077 123.586 36.0197 123.64 36.0197 123.676C36.0197 123.772 35.9897 123.85 35.9297 123.91C35.8697 123.97 35.7977 124 35.7137 124H33.0677C32.8637 124 32.7317 123.892 32.6717 123.676L30.7277 118.636C30.6917 118.54 30.6377 118.474 30.5657 118.438C30.4937 118.402 30.3797 118.384 30.2237 118.384H28.5137C28.4417 118.384 28.3877 118.408 28.3517 118.456C28.3157 118.492 28.2977 118.534 28.2977 118.582V123.568C28.2977 123.724 28.2557 123.838 28.1717 123.91C28.0997 123.97 27.9797 124 27.8117 124H25.5257C25.3817 124 25.2797 123.97 25.2197 123.91C25.1717 123.85 25.1477 123.76 25.1477 123.64V110.986C25.1477 110.758 25.2437 110.644 25.4357 110.644H31.0517C32.6717 110.644 33.9257 110.962 34.8137 111.598C35.7017 112.234 36.1457 113.14 36.1457 114.316C36.1457 115.192 35.9117 115.942 35.4437 116.566C34.9757 117.178 34.3877 117.61 33.6797 117.862C33.5837 117.898 33.5597 117.988 33.6077 118.132L35.9837 123.514ZM30.7637 116.26C31.4597 116.26 31.9877 116.116 32.3477 115.828C32.7077 115.528 32.8877 115.096 32.8877 114.532C32.8877 113.956 32.7017 113.518 32.3297 113.218C31.9697 112.906 31.4777 112.75 30.8537 112.75H28.6397C28.5077 112.75 28.4177 112.774 28.3697 112.822C28.3217 112.858 28.2977 112.93 28.2977 113.038V115.954C28.2977 116.062 28.3157 116.14 28.3517 116.188C28.3877 116.236 28.4537 116.26 28.5497 116.26H30.7637ZM38.1379 110.986C38.1379 110.758 38.2339 110.644 38.4259 110.644H47.4979C47.6779 110.644 47.7679 110.746 47.7679 110.95L47.7499 112.57C47.7499 112.822 47.6239 112.948 47.3719 112.948H41.6299C41.4019 112.948 41.2879 113.044 41.2879 113.236V115.846C41.2879 116.05 41.3779 116.152 41.5579 116.152H45.3739C45.5779 116.152 45.6799 116.248 45.6799 116.44V118.168C45.6799 118.336 45.5839 118.42 45.3919 118.42H41.5399C41.3719 118.42 41.2879 118.492 41.2879 118.636V121.462C41.2879 121.546 41.2999 121.606 41.3239 121.642C41.3599 121.678 41.4139 121.696 41.4859 121.696H47.6419C47.8579 121.696 47.9659 121.786 47.9659 121.966V123.676C47.9659 123.892 47.8459 124 47.6059 124H38.5339C38.3899 124 38.2879 123.97 38.2279 123.91C38.1679 123.85 38.1379 123.754 38.1379 123.622V110.986ZM50.3113 110.644C52.2913 110.644 53.6293 110.65 54.3253 110.662C56.7013 110.734 58.4713 111.34 59.6353 112.48C60.7993 113.62 61.3813 115.216 61.3813 117.268C61.3813 119.38 60.7753 121.03 59.5633 122.218C58.3513 123.406 56.5753 124 54.2353 124H50.3293C50.1853 124 50.0773 123.97 50.0053 123.91C49.9453 123.838 49.9153 123.724 49.9153 123.568V111.004C49.9153 110.872 49.9453 110.782 50.0053 110.734C50.0653 110.674 50.1673 110.644 50.3113 110.644ZM53.2273 112.876C53.1193 112.876 53.0653 112.96 53.0653 113.128V121.534C53.0653 121.63 53.0773 121.696 53.1013 121.732C53.1373 121.768 53.2033 121.786 53.2993 121.786H53.6413C55.1533 121.786 56.2693 121.438 56.9893 120.742C57.7213 120.034 58.0873 118.87 58.0873 117.25C58.0873 115.75 57.7813 114.67 57.1693 114.01C56.5573 113.35 55.6093 112.984 54.3253 112.912L53.2273 112.876ZM69.1569 124.18C67.8969 124.18 66.7989 123.91 65.8629 123.37C64.9389 122.818 64.2249 122.032 63.7209 121.012C63.2289 119.992 62.9829 118.78 62.9829 117.376C62.9829 115.96 63.2349 114.736 63.7389 113.704C64.2429 112.66 64.9569 111.862 65.8809 111.31C66.8169 110.746 67.9089 110.464 69.1569 110.464C70.3929 110.464 71.4729 110.746 72.3969 111.31C73.3209 111.862 74.0349 112.66 74.5389 113.704C75.0429 114.736 75.2949 115.954 75.2949 117.358C75.2949 118.75 75.0429 119.962 74.5389 120.994C74.0469 122.014 73.3389 122.8 72.4149 123.352C71.4909 123.904 70.4049 124.18 69.1569 124.18ZM69.1569 121.966C70.1529 121.966 70.8729 121.606 71.3169 120.886C71.7729 120.166 72.0009 119.002 72.0009 117.394C72.0009 115.75 71.7669 114.55 71.2989 113.794C70.8429 113.038 70.1289 112.66 69.1569 112.66C68.1609 112.66 67.4289 113.038 66.9609 113.794C66.5049 114.55 66.2769 115.75 66.2769 117.394C66.2769 119.002 66.5049 120.166 66.9609 120.886C67.4169 121.606 68.1489 121.966 69.1569 121.966Z" fill="black"/>
</svg>
