<svg width="100" height="140" viewBox="0 0 100 140" fill="none" xmlns="http://www.w3.org/2000/svg">
<rect x="10" y="8" width="80" height="80" rx="40" fill="black"/>
<path d="M40 34H60C62.2091 34 64 35.7909 64 38V58C64 60.2091 62.2091 62 60 62H40C37.7909 62 36 60.2091 36 58V38C36 35.7909 37.7909 34 40 34Z" fill="white"/>
<path d="M33.721 113.794C33.409 113.446 33.049 113.176 32.641 112.984C32.245 112.78 31.723 112.678 31.075 112.678C30.343 112.678 29.785 112.81 29.401 113.074C29.017 113.338 28.825 113.686 28.825 114.118C28.825 114.742 29.311 115.198 30.283 115.486L33.127 116.296C34.195 116.596 34.987 117.07 35.503 117.718C36.031 118.366 36.295 119.146 36.295 120.058C36.295 120.898 36.079 121.63 35.647 122.254C35.215 122.866 34.591 123.34 33.775 123.676C32.971 124.012 32.023 124.18 30.931 124.18C29.707 124.18 28.603 123.976 27.619 123.568C26.635 123.148 25.915 122.578 25.459 121.858C25.411 121.774 25.387 121.696 25.387 121.624C25.387 121.528 25.447 121.426 25.567 121.318L26.953 120.364C27.073 120.292 27.181 120.256 27.277 120.256C27.385 120.256 27.475 120.304 27.547 120.4C27.991 120.976 28.441 121.384 28.897 121.624C29.353 121.864 29.959 121.984 30.715 121.984C31.519 121.984 32.149 121.858 32.605 121.606C33.061 121.354 33.289 120.976 33.289 120.472C33.289 120.148 33.175 119.872 32.947 119.644C32.719 119.416 32.335 119.218 31.795 119.05L29.077 118.276C28.045 117.988 27.247 117.508 26.683 116.836C26.119 116.152 25.837 115.378 25.837 114.514C25.837 113.746 26.047 113.056 26.467 112.444C26.899 111.832 27.505 111.352 28.285 111.004C29.065 110.644 29.965 110.464 30.985 110.464C31.993 110.464 32.917 110.638 33.757 110.986C34.597 111.322 35.239 111.778 35.683 112.354C35.755 112.45 35.791 112.534 35.791 112.606C35.791 112.678 35.755 112.744 35.683 112.804L34.171 113.92C34.099 113.968 34.045 113.992 34.009 113.992C33.949 113.992 33.853 113.926 33.721 113.794ZM37.5686 110.968C37.5686 110.872 37.5986 110.794 37.6586 110.734C37.7306 110.674 37.8206 110.644 37.9286 110.644H48.2606C48.5006 110.644 48.6206 110.752 48.6206 110.968V112.642C48.6206 112.822 48.5126 112.912 48.2966 112.912H44.9306C44.7986 112.912 44.7326 112.972 44.7326 113.092V123.658C44.7326 123.886 44.6306 124 44.4266 124H41.8526C41.6726 124 41.5826 123.898 41.5826 123.694V113.146C41.5826 113.062 41.5646 113.002 41.5286 112.966C41.5046 112.93 41.4566 112.912 41.3846 112.912H37.9106C37.6826 112.912 37.5686 112.822 37.5686 112.642V110.968ZM55.3844 124.18C54.1244 124.18 53.0264 123.91 52.0904 123.37C51.1664 122.818 50.4524 122.032 49.9484 121.012C49.4564 119.992 49.2104 118.78 49.2104 117.376C49.2104 115.96 49.4624 114.736 49.9664 113.704C50.4704 112.66 51.1844 111.862 52.1084 111.31C53.0444 110.746 54.1364 110.464 55.3844 110.464C56.6204 110.464 57.7004 110.746 58.6244 111.31C59.5484 111.862 60.2624 112.66 60.7664 113.704C61.2704 114.736 61.5224 115.954 61.5224 117.358C61.5224 118.75 61.2704 119.962 60.7664 120.994C60.2744 122.014 59.5664 122.8 58.6424 123.352C57.7184 123.904 56.6324 124.18 55.3844 124.18ZM55.3844 121.966C56.3804 121.966 57.1004 121.606 57.5444 120.886C58.0004 120.166 58.2284 119.002 58.2284 117.394C58.2284 115.75 57.9944 114.55 57.5264 113.794C57.0704 113.038 56.3564 112.66 55.3844 112.66C54.3884 112.66 53.6564 113.038 53.1884 113.794C52.7324 114.55 52.5044 115.75 52.5044 117.394C52.5044 119.002 52.7324 120.166 53.1884 120.886C53.6444 121.606 54.3764 121.966 55.3844 121.966ZM74.5258 114.802C74.5258 116.098 74.0758 117.106 73.1758 117.826C72.2878 118.534 71.1118 118.888 69.6478 118.888H66.9478C66.8158 118.888 66.7498 118.954 66.7498 119.086V123.586C66.7498 123.862 66.5938 124 66.2818 124H63.9778C63.8338 124 63.7318 123.97 63.6718 123.91C63.6238 123.85 63.5998 123.76 63.5998 123.64V110.986C63.5998 110.758 63.6958 110.644 63.8878 110.644H69.2878C70.2838 110.644 71.1718 110.8 71.9518 111.112C72.7438 111.412 73.3678 111.874 73.8238 112.498C74.2918 113.122 74.5258 113.89 74.5258 114.802ZM71.2858 114.748C71.2858 114.136 71.0878 113.674 70.6918 113.362C70.2958 113.05 69.7618 112.894 69.0898 112.894H67.0918C66.9718 112.894 66.8818 112.918 66.8218 112.966C66.7738 113.014 66.7498 113.098 66.7498 113.218V116.296C66.7498 116.416 66.7678 116.506 66.8038 116.566C66.8398 116.614 66.9058 116.638 67.0018 116.638H69.2158C69.8518 116.638 70.3558 116.47 70.7278 116.134C71.0998 115.798 71.2858 115.336 71.2858 114.748Z" fill="black"/>
</svg>
